<svg width="20" height="20" viewBox="0 0 20 20" fill="none" xmlns="http://www.w3.org/2000/svg">
<path d="M4.15 13.1509C2.1592 12.3562 1 10.3906 1 8.35839C1 5.7214 3.0853 3.1159 4.5487 1.6129C5.3434 0.7957 6.55571 0.7957 7.35131 1.6129C7.79411 2.0674 8.16851 2.6227 8.65001 3.25" stroke="#9D87D2" stroke-width="2" stroke-linecap="round"/>
<path d="M6.3999 12.6343C6.3999 9.43394 9.05401 6.27134 10.917 4.44435C11.9286 3.45345 13.4712 3.45345 14.4828 4.44435C16.3458 6.27134 18.9999 9.43394 18.9999 12.6343C18.9999 15.7726 16.6149 19.0009 12.6999 19.0009C8.7849 19.0009 6.3999 15.7726 6.3999 12.6343Z" stroke="#9D87D2" stroke-width="2"/>
<path d="M15.8499 13.1509C15.8499 15.1399 14.4999 15.8509 13.1499 15.8509" stroke="#9D87D2" stroke-width="2" stroke-linecap="round" stroke-linejoin="round"/>
</svg>
