<svg width="54" height="54" viewBox="0 0 54 54" fill="none" xmlns="http://www.w3.org/2000/svg">
<path d="M16.2 39.924L27 29.124L37.8 39.924L39.924 37.8L29.124 27L39.924 16.2L37.8 14.076L27 24.876L16.2 14.076L14.076 16.2L24.876 27L14.076 37.8L16.2 39.924ZM27.009 54C23.277 54 19.767 53.292 16.479 51.876C13.193 50.458 10.334 48.534 7.902 46.104C5.47 43.674 3.545 40.818 2.127 37.536C0.709 34.254 0 30.745 0 27.009C0 23.273 0.709 19.763 2.127 16.479C3.543 13.193 5.464 10.334 7.89 7.902C10.316 5.47 13.173 3.545 16.461 2.127C19.749 0.709 23.259 0 26.991 0C30.723 0 34.233 0.709 37.521 2.127C40.807 3.543 43.666 5.465 46.098 7.893C48.53 10.321 50.455 13.178 51.873 16.464C53.291 19.75 54 23.259 54 26.991C54 30.723 53.292 34.233 51.876 37.521C50.46 40.809 48.536 43.668 46.104 46.098C43.672 48.528 40.816 50.453 37.536 51.873C34.256 53.293 30.747 54.002 27.009 54ZM27 51C33.7 51 39.375 48.675 44.025 44.025C48.675 39.375 51 33.7 51 27C51 20.3 48.675 14.625 44.025 9.975C39.375 5.325 33.7 3 27 3C20.3 3 14.625 5.325 9.975 9.975C5.325 14.625 3 20.3 3 27C3 33.7 5.325 39.375 9.975 44.025C14.625 48.675 20.3 51 27 51Z" fill="#7963AB"/>
</svg>
