<svg width="48" height="68" viewBox="0 0 48 68" fill="none" xmlns="http://www.w3.org/2000/svg">
<path d="M47.25 23.6274C47.2505 19.0988 45.9493 14.6655 43.5016 10.8555C41.0539 7.04543 37.5627 4.01915 33.4437 2.13704C29.3248 0.254933 24.7517 -0.403698 20.2691 0.239581C15.7864 0.882861 11.5831 2.80095 8.1597 5.76542C4.73628 8.72989 2.23701 12.6158 0.95951 16.9605C-0.317986 21.3051 -0.319871 25.9254 0.954079 30.2711C2.22803 34.6167 4.72413 38.5047 8.14513 41.472C11.5661 44.4392 15.7679 46.3608 20.25 47.0077V51.7524H12.375C11.4799 51.7524 10.6214 52.108 9.98851 52.7409C9.35558 53.3738 9 54.2323 9 55.1274C9 56.0225 9.35558 56.8809 9.98851 57.5139C10.6214 58.1468 11.4799 58.5024 12.375 58.5024H20.25V64.1274C20.25 65.0225 20.6056 65.8809 21.2385 66.5139C21.8714 67.1468 22.7299 67.5024 23.625 67.5024C24.5201 67.5024 25.3785 67.1468 26.0115 66.5139C26.6444 65.8809 27 65.0225 27 64.1274V58.5024H34.875C35.7701 58.5024 36.6285 58.1468 37.2615 57.5139C37.8944 56.8809 38.25 56.0225 38.25 55.1274C38.25 54.2323 37.8944 53.3738 37.2615 52.7409C36.6285 52.108 35.7701 51.7524 34.875 51.7524H27V47.0077C32.6194 46.1895 37.7571 43.3775 41.4748 39.085C45.1926 34.7925 47.2424 29.306 47.25 23.6274ZM6.75 23.6274C6.75 20.2898 7.7397 17.0272 9.59395 14.2521C11.4482 11.4771 14.0837 9.31415 17.1672 8.03692C20.2507 6.75969 23.6437 6.42551 26.9171 7.07664C30.1906 7.72776 33.1974 9.33495 35.5574 11.695C37.9174 14.055 39.5246 17.0618 40.1758 20.3352C40.8269 23.6087 40.4927 27.0017 39.2155 30.0852C37.9382 33.1687 35.7753 35.8042 33.0002 37.6584C30.2252 39.5127 26.9626 40.5024 23.625 40.5024C19.1511 40.4972 14.8619 38.7176 11.6983 35.5541C8.53478 32.3905 6.75521 28.1013 6.75 23.6274Z" fill="#E4CCFF"/>
</svg>
