<svg width="54" height="54" viewBox="0 0 54 54" fill="none" xmlns="http://www.w3.org/2000/svg">
<path d="M51 19.5V3H34.5M35.25 18.75L49.5 4.5M39 33C39 37.7739 37.1036 42.3523 33.7279 45.7279C30.3523 49.1036 25.7739 51 21 51C16.2261 51 11.6477 49.1036 8.27208 45.7279C4.89642 42.3523 3 37.7739 3 33C3 28.2261 4.89642 23.6477 8.27208 20.2721C11.6477 16.8964 16.2261 15 21 15C25.7739 15 30.3523 16.8964 33.7279 20.2721C37.1036 23.6477 39 28.2261 39 33Z" stroke="#0D99FF" stroke-width="6" stroke-linecap="square"/>
</svg>
