<svg width="158" height="158" viewBox="0 0 158 158" fill="none" xmlns="http://www.w3.org/2000/svg">
<circle cx="79" cy="79" r="79" fill="#E5DAFF"/>
<path d="M79 4C37.6 4 4 37.6 4 79C4 120.4 37.6 154 79 154C120.4 154 154 120.4 154 79C154 37.6 120.4 4 79 4ZM79 34C93.475 34 105.25 45.775 105.25 60.25C105.25 74.725 93.475 86.5 79 86.5C64.525 86.5 52.75 74.725 52.75 60.25C52.75 45.775 64.525 34 79 34ZM79 139C63.775 139 45.775 132.85 32.95 117.4C45.625 107.5 61.6 101.5 79 101.5C96.4 101.5 112.375 107.5 125.05 117.4C112.225 132.85 94.225 139 79 139Z" fill="white"/>
</svg>
