<svg width="18" height="18" viewBox="0 0 18 18" fill="none" xmlns="http://www.w3.org/2000/svg">
<path d="M9.6075 6.0075C9.4425 5.8425 9.2361 5.7639 8.9883 5.7717C8.7411 5.7789 8.535 5.865 8.37 6.03C8.205 6.195 8.1225 6.405 8.1225 6.66C8.1225 6.915 8.205 7.125 8.37 7.29L9.18 8.1H6.2775C6.0225 8.1 5.8125 8.1864 5.6475 8.3592C5.4825 8.5314 5.4 8.745 5.4 9C5.4 9.255 5.4861 9.4689 5.6583 9.6417C5.8311 9.8139 6.045 9.9 6.3 9.9H9.18L8.3475 10.7325C8.1825 10.8975 8.1036 11.1039 8.1108 11.3517C8.1186 11.5989 8.205 11.805 8.37 11.97C8.535 12.135 8.745 12.2175 9 12.2175C9.255 12.2175 9.465 12.135 9.63 11.97L11.97 9.63C12.135 9.465 12.2175 9.255 12.2175 9C12.2175 8.745 12.135 8.535 11.97 8.37L9.6075 6.0075ZM9 0C10.245 0 11.415 0.236401 12.51 0.7092C13.605 1.1814 14.5575 1.8225 15.3675 2.6325C16.1775 3.4425 16.8186 4.395 17.2908 5.49C17.7636 6.585 18 7.755 18 9C18 10.245 17.7636 11.415 17.2908 12.51C16.8186 13.605 16.1775 14.5575 15.3675 15.3675C14.5575 16.1775 13.605 16.8189 12.51 17.2917C11.415 17.7639 10.245 18 9 18C7.755 18 6.585 17.7639 5.49 17.2917C4.395 16.8189 3.4425 16.1775 2.6325 15.3675C1.8225 14.5575 1.1814 13.605 0.7092 12.51C0.236401 11.415 0 10.245 0 9C0 7.755 0.236401 6.585 0.7092 5.49C1.1814 4.395 1.8225 3.4425 2.6325 2.6325C3.4425 1.8225 4.395 1.1814 5.49 0.7092C6.585 0.236401 7.755 0 9 0Z" fill="#9D87D2"/>
</svg>
