<svg width="13" height="23" viewBox="0 0 13 23" fill="none" xmlns="http://www.w3.org/2000/svg">
<path d="M6.31579 23C4.56842 23 3.07895 22.3771 1.84737 21.1313C0.615789 19.8854 0 18.3787 0 16.6111C0 15.5889 0.221053 14.6359 0.663158 13.7521C1.10526 12.8683 1.72632 12.1176 2.52632 11.5V3.83333C2.52632 2.76852 2.89474 1.86343 3.63158 1.11806C4.36842 0.372685 5.26316 0 6.31579 0C7.36842 0 8.26316 0.372685 9 1.11806C9.73684 1.86343 10.1053 2.76852 10.1053 3.83333V11.5C10.9053 12.1176 11.5263 12.8683 11.9684 13.7521C12.4105 14.6359 12.6316 15.5889 12.6316 16.6111C12.6316 18.3787 12.0158 19.8854 10.7842 21.1313C9.55263 22.3771 8.06316 23 6.31579 23ZM2.52632 16.6111H10.1053C10.1053 15.9935 9.97368 15.4185 9.71053 14.8861C9.44737 14.3537 9.07368 13.9065 8.58947 13.5444L7.57895 12.7778V3.83333C7.57895 3.4713 7.45789 3.16782 7.21579 2.92292C6.97368 2.67801 6.67368 2.55556 6.31579 2.55556C5.95789 2.55556 5.65789 2.67801 5.41579 2.92292C5.17368 3.16782 5.05263 3.4713 5.05263 3.83333V12.7778L4.04211 13.5444C3.55789 13.9065 3.18421 14.3537 2.92105 14.8861C2.65789 15.4185 2.52632 15.9935 2.52632 16.6111Z" fill="#9D87D2"/>
</svg>
