<svg width="20" height="19" viewBox="0 0 20 19" fill="none" xmlns="http://www.w3.org/2000/svg">
<path d="M0.293464 9.20972C0.0978213 8.99861 0 8.74792 0 8.45764C0 8.16736 0.0978213 7.91667 0.293464 7.70556L3.28146 4.75L2.13428 3.61528L1.81414 3.93194C1.60071 4.14306 1.34727 4.24861 1.0538 4.24861C0.760338 4.24861 0.506892 4.14306 0.293464 3.93194C0.0978213 3.72083 0 3.47014 0 3.17986C0 2.88958 0.0978213 2.64769 0.293464 2.45417L2.42775 0.343056C2.64117 0.131944 2.89462 0.0263889 3.18808 0.0263889C3.48155 0.0263889 3.73499 0.131944 3.94842 0.343056C4.16185 0.536574 4.26856 0.78287 4.26856 1.08194C4.26856 1.38102 4.16185 1.62731 3.94842 1.82083L3.62828 2.1375L4.77546 3.27222L7.76345 0.316667C7.97688 0.105556 8.23032 0 8.52379 0C8.81725 0 9.0707 0.105556 9.28413 0.316667C9.49755 0.527778 9.60427 0.778472 9.60427 1.06875C9.60427 1.35903 9.49755 1.60972 9.28413 1.82083L8.56381 2.50694L10.2179 4.14306L7.2032 7.09861C7.00756 7.30972 6.90974 7.56042 6.90974 7.85069C6.90974 8.14097 7.00756 8.39167 7.2032 8.60278C7.41663 8.81389 7.67008 8.91944 7.96354 8.91944C8.257 8.91944 8.51045 8.81389 8.72388 8.60278L11.7119 5.62083L13.3393 7.20417L10.3246 10.1861C10.1112 10.3972 10.0044 10.6479 10.0044 10.9382C10.0044 11.2285 10.1112 11.4792 10.3246 11.6903C10.5202 11.8838 10.7648 11.9762 11.0582 11.9674C11.3517 11.9586 11.6052 11.8574 11.8186 11.6639L14.8066 8.68194L16.434 10.2917C16.843 10.6963 17.0476 11.1933 17.0476 11.7826C17.0476 12.372 16.843 12.869 16.434 13.2736L15.687 14.0389L19.8221 18.1028C20 18.2787 20.0445 18.4722 19.9555 18.6833C19.8666 18.8944 19.6976 19 19.4486 19H18.3548C18.1414 19 17.9324 18.956 17.7279 18.8681C17.5233 18.7801 17.3499 18.6657 17.2076 18.525L14.1663 15.5167L13.4193 16.2819C13.0102 16.6866 12.5078 16.8889 11.912 16.8889C11.3161 16.8889 10.8137 16.6866 10.4046 16.2819L2.53446 8.49722L1.81414 9.20972C1.60071 9.40324 1.34727 9.5 1.0538 9.5C0.760338 9.5 0.506892 9.40324 0.293464 9.20972Z" fill="#9D87D2"/>
</svg>
