<svg width="18" height="18" viewBox="0 0 18 18" fill="none" xmlns="http://www.w3.org/2000/svg">
<path d="M10.8 8.1V5.4C14.904 4.878 18 2.61 18 0H0C0 2.61 3.096 4.878 7.2 5.4V8.1C3.888 8.757 0 11.349 0 18H5.4V16.2H1.917C2.754 10.053 7.902 9.72 9 9.72C10.098 9.72 15.246 10.053 16.083 16.2H12.6V18H18C18 11.349 14.112 8.757 10.8 8.1ZM9 18C8.01 18 7.2 17.19 7.2 16.2C7.2 15.705 7.398 15.255 7.731 14.931C8.451 14.211 12.6 12.6 12.6 12.6C12.6 12.6 10.989 16.749 10.269 17.469C9.945 17.802 9.495 18 9 18Z" fill="#9D87D2"/>
</svg>
