<svg width="24" height="27" viewBox="0 0 24 27" fill="none" xmlns="http://www.w3.org/2000/svg">
<path d="M4 27V14.6475C2.8 14.3325 1.83333 13.6913 1.1 12.7238C0.366667 11.7563 0 10.665 0 9.45V0H2.66667V8.1H4V0H6.66667V8.1H8V0H10.6667V9.45C10.6667 10.665 10.3 11.7563 9.56667 12.7238C8.83333 13.6913 7.86667 14.3325 6.66667 14.6475V27H4ZM17.3333 27V14.1413C16.1333 13.7363 15.1667 12.8871 14.4333 11.5938C13.7 10.3005 13.3333 8.83215 13.3333 7.18875C13.3333 5.18625 13.8556 3.4875 14.9 2.0925C15.9444 0.6975 17.2 0 18.6667 0C20.1333 0 21.3889 0.7029 22.4333 2.1087C23.4778 3.5145 24 5.2191 24 7.2225C24 8.865 23.6333 10.3275 22.9 11.61C22.1667 12.8925 21.2 13.7363 20 14.1413V27H17.3333Z" fill="white"/>
</svg>
