<svg width="30" height="25" viewBox="0 0 30 25" fill="none" xmlns="http://www.w3.org/2000/svg">
<path d="M27.5728 0H2.29773C1.68833 0 1.1039 0.238414 0.67299 0.662793C0.242082 1.08717 0 1.66275 0 2.26292V22.6292C0 23.2293 0.242082 23.8049 0.67299 24.2293C1.1039 24.6537 1.68833 24.8921 2.29773 24.8921H27.5728C28.1822 24.8921 28.7666 24.6537 29.1975 24.2293C29.6284 23.8049 29.8705 23.2293 29.8705 22.6292V2.26292C29.8705 1.66275 29.6284 1.08717 29.1975 0.662793C28.7666 0.238414 28.1822 0 27.5728 0ZM6.89319 14.709C6.89317 14.9315 6.82654 15.149 6.70164 15.3344C6.57673 15.5198 6.3991 15.6648 6.19095 15.7513C6.04973 15.8105 5.89779 15.8408 5.74433 15.8404H4.02103C3.71633 15.8404 3.42411 15.7212 3.20866 15.509C2.9932 15.2968 2.87216 15.009 2.87216 14.709C2.87216 14.4089 2.9932 14.1211 3.20866 13.9089C3.42411 13.6967 3.71633 13.5775 4.02103 13.5775H4.59546V6.78875H4.02103C3.71633 6.78875 3.42411 6.66954 3.20866 6.45735C2.9932 6.24516 2.87216 5.95737 2.87216 5.65729C2.87216 5.35721 2.9932 5.06942 3.20866 4.85723C3.42411 4.64504 3.71633 4.52583 4.02103 4.52583H5.74433C5.94555 4.52628 6.14313 4.57878 6.31728 4.67806C6.49143 4.77735 6.63605 4.91994 6.73666 5.09156L9.76536 10.2001L12.7941 5.09156C12.8947 4.91994 13.0393 4.77735 13.2134 4.67806C13.3876 4.57878 13.5852 4.52628 13.7864 4.52583H15.5097C15.8144 4.52583 16.1066 4.64504 16.3221 4.85723C16.5375 5.06942 16.6585 5.35721 16.6585 5.65729C16.6585 5.95737 16.5375 6.24516 16.3221 6.45735C16.1066 6.66954 15.8144 6.78875 15.5097 6.78875H14.9353V13.5775H15.5097C15.8144 13.5775 16.1066 13.6967 16.3221 13.9089C16.5375 14.1211 16.6585 14.4089 16.6585 14.709C16.6585 15.009 16.5375 15.2968 16.3221 15.509C16.1066 15.7212 15.8144 15.8404 15.5097 15.8404H13.7864C13.6329 15.8408 13.481 15.8105 13.3398 15.7513C13.1316 15.6648 12.954 15.5198 12.8291 15.3344C12.7042 15.149 12.6375 14.9315 12.6375 14.709V9.84227L10.7577 13.0118C10.6565 13.1826 10.5116 13.3243 10.3375 13.4228C10.1634 13.5212 9.96614 13.5731 9.76536 13.5731C9.56457 13.5731 9.36729 13.5212 9.19318 13.4228C9.01907 13.3243 8.8742 13.1826 8.77302 13.0118L6.89319 9.84227V14.709ZM25.275 20.3662H9.19092C8.88623 20.3662 8.59401 20.247 8.37855 20.0349C8.1631 19.8227 8.04206 19.5349 8.04206 19.2348C8.04206 18.9347 8.1631 18.6469 8.37855 18.4347C8.59401 18.2225 8.88623 18.1033 9.19092 18.1033H25.275C25.5797 18.1033 25.872 18.2225 26.0874 18.4347C26.3029 18.6469 26.4239 18.9347 26.4239 19.2348C26.4239 19.5349 26.3029 19.8227 26.0874 20.0349C25.872 20.247 25.5797 20.3662 25.275 20.3662ZM25.275 15.8404H19.5307C19.226 15.8404 18.9338 15.7212 18.7183 15.509C18.5029 15.2968 18.3818 15.009 18.3818 14.709C18.3818 14.4089 18.5029 14.1211 18.7183 13.9089C18.9338 13.6967 19.226 13.5775 19.5307 13.5775H25.275C25.5797 13.5775 25.872 13.6967 26.0874 13.9089C26.3029 14.1211 26.4239 14.4089 26.4239 14.709C26.4239 15.009 26.3029 15.2968 26.0874 15.509C25.872 15.7212 25.5797 15.8404 25.275 15.8404ZM25.275 11.3146H19.5307C19.226 11.3146 18.9338 11.1954 18.7183 10.9832C18.5029 10.771 18.3818 10.4832 18.3818 10.1831C18.3818 9.88304 18.5029 9.59525 18.7183 9.38306C18.9338 9.17087 19.226 9.05167 19.5307 9.05167H25.275C25.5797 9.05167 25.872 9.17087 26.0874 9.38306C26.3029 9.59525 26.4239 9.88304 26.4239 10.1831C26.4239 10.4832 26.3029 10.771 26.0874 10.9832C25.872 11.1954 25.5797 11.3146 25.275 11.3146Z" fill="white"/>
</svg>
