<svg width="26" height="24" viewBox="0 0 26 24" fill="none" xmlns="http://www.w3.org/2000/svg">
<path d="M23.6668 14.3333V11.6666H2.3335V14.3333C2.3335 15.8506 3.11083 18.664 5.9935 19.4546C6.48683 19.5906 7.04283 19.6666 7.66683 19.6666H18.3335C18.8983 19.6717 19.4612 19.6004 20.0068 19.4546C22.8895 18.664 23.6668 15.8506 23.6668 14.3333Z" fill="white"/>
<path d="M1 11.6667H2.33333M2.33333 11.6667H23.6667M2.33333 11.6667V14.3333C2.33333 15.8507 3.11067 18.664 5.99333 19.4547M23.6667 11.6667C24.0203 11.6667 24.3594 11.5262 24.6095 11.2761C24.8595 11.0261 25 10.687 25 10.3333V5C25 3.66667 24.2 1 21 1C17.8 1 17 3.66667 17 5M23.6667 11.6667V14.3333C23.6667 15.8507 22.8893 18.664 20.0067 19.4547M17 5H14.3333M17 5H19.6667M20.0067 19.4547C19.461 19.6004 18.8981 19.6717 18.3333 19.6667H7.66667C7.04267 19.6667 6.48667 19.5907 5.99333 19.4547M20.0067 19.4547L21 22.3333M5.99333 19.4547L5 22.3333" stroke="white" stroke-width="2" stroke-linecap="round" stroke-linejoin="round"/>
</svg>
