<svg width="19" height="24" viewBox="0 0 19 24" fill="none" xmlns="http://www.w3.org/2000/svg">
<path d="M4.15625 24C3.00833 24 2.02865 23.59 1.21719 22.77C0.405729 21.95 0 20.96 0 19.8V4.2C0 3.04 0.405729 2.05 1.21719 1.23C2.02865 0.41 3.00833 0 4.15625 0H16.625C17.2781 0 17.8372 0.235 18.3023 0.705C18.7674 1.175 19 1.74 19 2.4V17.43C19 17.59 18.9357 17.735 18.807 17.865C18.6784 17.995 18.4458 18.14 18.1094 18.3C17.8323 18.44 17.6146 18.64 17.4563 18.9C17.2979 19.16 17.2188 19.46 17.2188 19.8C17.2188 20.14 17.2979 20.445 17.4563 20.715C17.6146 20.985 17.8323 21.18 18.1094 21.3C18.3865 21.42 18.6042 21.585 18.7625 21.795C18.9208 22.005 19 22.23 19 22.47V22.77C19 23.11 18.8862 23.4 18.6586 23.64C18.431 23.88 18.149 24 17.8125 24H4.15625ZM5.9375 15.6C6.27396 15.6 6.55599 15.485 6.78359 15.255C7.0112 15.025 7.125 14.74 7.125 14.4V3.6C7.125 3.26 7.0112 2.975 6.78359 2.745C6.55599 2.515 6.27396 2.4 5.9375 2.4C5.60104 2.4 5.31901 2.515 5.09141 2.745C4.8638 2.975 4.75 3.26 4.75 3.6V14.4C4.75 14.74 4.8638 15.025 5.09141 15.255C5.31901 15.485 5.60104 15.6 5.9375 15.6ZM4.15625 21.6H15.2297C15.1109 21.32 15.0169 21.035 14.9477 20.745C14.8784 20.455 14.8438 20.14 14.8438 19.8C14.8438 19.48 14.8734 19.17 14.9328 18.87C14.9922 18.57 15.0911 18.28 15.2297 18H4.15625C3.64167 18 3.21615 18.175 2.87969 18.525C2.54323 18.875 2.375 19.3 2.375 19.8C2.375 20.32 2.54323 20.75 2.87969 21.09C3.21615 21.43 3.64167 21.6 4.15625 21.6Z" fill="#F9F5FF"/>
</svg>
