<svg width="26" height="26" viewBox="0 0 26 26" fill="none" xmlns="http://www.w3.org/2000/svg">
<path d="M1 6.33333C1 7.74782 1.56191 9.10438 2.56211 10.1046C3.56231 11.1048 4.91888 11.6667 6.33338 11.6667C7.74788 11.6667 9.10444 11.1048 10.1046 10.1046C11.1048 9.10438 11.6668 7.74782 11.6668 6.33333C11.6668 4.91885 11.1048 3.56229 10.1046 2.5621C9.10444 1.5619 7.74788 1 6.33338 1C4.91888 1 3.56231 1.5619 2.56211 2.5621C1.56191 3.56229 1 4.91885 1 6.33333Z" stroke="#F9F5FF" stroke-width="2" stroke-linecap="round" stroke-linejoin="round"/>
<path d="M6.33301 1V6.33333H11.6664M8.9997 19.6667V25M19.6665 15.6667V25M14.3331 14.3333V25M24.9998 13V25" stroke="#F9F5FF" stroke-width="2" stroke-linecap="round" stroke-linejoin="round"/>
</svg>
