<svg width="28" height="28" viewBox="0 0 28 28" fill="none" xmlns="http://www.w3.org/2000/svg">
<path d="M5.583 28C4.81542 28 4.13412 27.7537 3.5391 27.2611C2.94303 26.7685 2.57882 26.1463 2.44648 25.3944L0.0246092 11.1611C-0.0547965 10.6944 0.0579596 10.2734 0.362877 9.898C0.666736 9.52156 1.07012 9.33333 1.57302 9.33333H26.427C26.9299 9.33333 27.3333 9.52156 27.6371 9.898C27.942 10.2734 28.0548 10.6944 27.9754 11.1611L25.5535 25.3944C25.4212 26.1463 25.0575 26.7685 24.4625 27.2611C23.8664 27.7537 23.1846 28 22.417 28H5.583ZM10.8238 18.6667H17.1762C17.6262 18.6667 18.0036 18.5173 18.3085 18.2187C18.6124 17.921 18.7643 17.5519 18.7643 17.1111C18.7643 16.6704 18.6124 16.3007 18.3085 16.002C18.0036 15.7044 17.6262 15.5556 17.1762 15.5556H10.8238C10.3738 15.5556 9.9969 15.7044 9.69304 16.002C9.38812 16.3007 9.23566 16.6704 9.23566 17.1111C9.23566 17.5519 9.38812 17.921 9.69304 18.2187C9.9969 18.5173 10.3738 18.6667 10.8238 18.6667ZM4.47132 7.77778C4.02136 7.77778 3.64392 7.62896 3.339 7.33133C3.03514 7.03267 2.88321 6.66296 2.88321 6.22222C2.88321 5.78148 3.03514 5.41178 3.339 5.11311C3.64392 4.81548 4.02136 4.66667 4.47132 4.66667H23.5287C23.9786 4.66667 24.3556 4.81548 24.6594 5.11311C24.9643 5.41178 25.1168 5.78148 25.1168 6.22222C25.1168 6.66296 24.9643 7.03267 24.6594 7.33133C24.3556 7.62896 23.9786 7.77778 23.5287 7.77778H4.47132ZM7.64755 3.11111C7.19759 3.11111 6.82014 2.96178 6.51523 2.66311C6.21137 2.36548 6.05944 1.9963 6.05944 1.55556C6.05944 1.11481 6.21137 0.745111 6.51523 0.446444C6.82014 0.148815 7.19759 0 7.64755 0H20.3525C20.8024 0 21.1793 0.148815 21.4832 0.446444C21.7881 0.745111 21.9406 1.11481 21.9406 1.55556C21.9406 1.9963 21.7881 2.36548 21.4832 2.66311C21.1793 2.96178 20.8024 3.11111 20.3525 3.11111H7.64755Z" fill="#F9F5FF"/>
</svg>
