<svg width="30" height="25" viewBox="0 0 30 25" fill="none" xmlns="http://www.w3.org/2000/svg">
<path d="M14.9294 20.1202C15.1172 20.1202 15.2874 20.0905 15.4399 20.0312C15.5925 19.9718 15.7392 19.8828 15.8801 19.7641C16.6312 19.0756 17.3472 18.399 18.0279 17.7343C18.7087 17.0695 19.3014 16.4167 19.8061 15.7757C20.3108 15.1347 20.7157 14.5115 21.0209 13.9061C21.326 13.3007 21.4786 12.7131 21.4786 12.1433C21.4786 11.0988 21.1265 10.2322 20.4223 9.54375C19.7181 8.85527 18.873 8.51103 17.8871 8.51103C17.2768 8.51103 16.7193 8.63566 16.2146 8.88494C15.7099 9.13422 15.2815 9.46065 14.9294 9.86424C14.5773 9.46065 14.1371 9.13422 13.609 8.88494C13.0808 8.63566 12.535 8.51103 11.9717 8.51103C10.9858 8.51103 10.1407 8.85527 9.4365 9.54375C8.73228 10.2322 8.38017 11.0988 8.38017 12.1433C8.38017 12.7131 8.53275 13.3007 8.83791 13.9061C9.14307 14.5115 9.548 15.1347 10.0527 15.7757C10.5574 16.4167 11.1501 17.0695 11.8308 17.7343C12.5116 18.399 13.2275 19.0756 13.9787 19.7641C14.1195 19.8828 14.2662 19.9718 14.4188 20.0312C14.5714 20.0905 14.7416 20.1202 14.9294 20.1202ZM6.47879 24.8921C5.70415 24.8921 5.04101 24.6131 4.48938 24.0552C3.93774 23.4973 3.66192 22.8266 3.66192 22.0432V11.538L2.25349 12.6419C1.92486 12.8793 1.57275 12.9743 1.19717 12.9268C0.821585 12.8793 0.516425 12.6894 0.281686 12.357C0.0469478 12.0246 -0.0410793 11.6685 0.0176054 11.2887C0.0762901 10.9088 0.258213 10.6002 0.563373 10.3628L13.2041 0.569776C13.4623 0.379851 13.7381 0.237407 14.0315 0.142444C14.3249 0.0474813 14.6242 0 14.9294 0C15.2345 0 15.5338 0.0474813 15.8273 0.142444C16.1207 0.237407 16.3965 0.379851 16.6547 0.569776L29.3306 10.3628C29.6358 10.6002 29.8118 10.9088 29.8588 11.2887C29.9057 11.6685 29.8118 12.0246 29.5771 12.357C29.3423 12.6656 29.0372 12.8437 28.6616 12.8912C28.286 12.9387 27.9456 12.8437 27.6405 12.6063L26.1968 11.538V22.0432C26.1968 22.8266 25.921 23.4973 25.3694 24.0552C24.8177 24.6131 24.1546 24.8921 23.38 24.8921H6.47879Z" fill="#41354C"/>
</svg>
