<svg width="32" height="26" viewBox="0 0 32 26" fill="none" xmlns="http://www.w3.org/2000/svg">
<path d="M15.9937 21.0157C16.1949 21.0157 16.3772 20.9847 16.5407 20.9227C16.7041 20.8608 16.8613 20.7678 17.0122 20.6438C17.8169 19.9247 18.5839 19.2179 19.3132 18.5236C20.0424 17.8293 20.6774 17.1474 21.2181 16.4778C21.7587 15.8083 22.1925 15.1574 22.5194 14.525C22.8464 13.8927 23.0098 13.279 23.0098 12.6838C23.0098 11.5928 22.6326 10.6876 21.8782 9.96853C21.1238 9.2494 20.2185 8.88984 19.1623 8.88984C18.5084 8.88984 17.9112 9.02003 17.3705 9.2804C16.8299 9.54077 16.3709 9.88174 15.9937 10.3033C15.6165 9.88174 15.145 9.54077 14.5792 9.2804C14.0134 9.02003 13.4287 8.88984 12.8251 8.88984C11.769 8.88984 10.8637 9.2494 10.1092 9.96853C9.35481 10.6876 8.9776 11.5928 8.9776 12.6838C8.9776 13.279 9.14106 13.8927 9.46798 14.525C9.79489 15.1574 10.2287 15.8083 10.7694 16.4778C11.31 17.1474 11.945 17.8293 12.6743 18.5236C13.4035 19.2179 14.1705 19.9247 14.9752 20.6438C15.1261 20.7678 15.2833 20.8608 15.4468 20.9227C15.6102 20.9847 15.7925 21.0157 15.9937 21.0157ZM6.94067 26C6.11081 26 5.40039 25.7086 4.80943 25.1259C4.21847 24.5432 3.92299 23.8426 3.92299 23.0243V12.0515L2.41415 13.2046C2.06208 13.4526 1.68487 13.5517 1.28251 13.5021C0.880157 13.4525 0.553242 13.2542 0.301768 12.907C0.0502947 12.5598 -0.0440079 12.1879 0.0188605 11.7911C0.0817289 11.3944 0.276621 11.072 0.603536 10.824L14.1454 0.595136C14.422 0.396757 14.7175 0.247973 15.0318 0.148784C15.3462 0.0495947 15.6668 0 15.9937 0C16.3206 0 16.6413 0.0495947 16.9556 0.148784C17.2699 0.247973 17.5654 0.396757 17.842 0.595136L31.4216 10.824C31.7485 11.072 31.9371 11.3944 31.9874 11.7911C32.0377 12.1879 31.9371 12.5598 31.6857 12.907C31.4342 13.2294 31.1073 13.4154 30.7049 13.4649C30.3026 13.5145 29.9379 13.4154 29.611 13.1674L28.0644 12.0515V23.0243C28.0644 23.8426 27.769 24.5432 27.178 25.1259C26.587 25.7086 25.8766 26 25.0468 26H6.94067Z" fill="white"/>
</svg>
