<svg width="27" height="27" viewBox="0 0 27 27" fill="none" xmlns="http://www.w3.org/2000/svg">
<path d="M13.3333 0C11.5824 0 9.84856 0.344877 8.23089 1.01494C6.61321 1.685 5.14336 2.66713 3.90524 3.90524C1.40476 6.40573 0 9.79711 0 13.3333C0 16.8696 1.40476 20.2609 3.90524 22.7614C5.14336 23.9995 6.61321 24.9817 8.23089 25.6517C9.84856 26.3218 11.5824 26.6667 13.3333 26.6667C16.8696 26.6667 20.2609 25.2619 22.7614 22.7614C25.2619 20.2609 26.6667 16.8696 26.6667 13.3333C26.6667 11.5824 26.3218 9.84856 25.6517 8.23089C24.9817 6.61321 23.9995 5.14336 22.7614 3.90524C21.5233 2.66713 20.0535 1.685 18.4358 1.01494C16.8181 0.344877 15.0843 0 13.3333 0ZM18.9333 18.9333L12 14.6667V6.66667H14V13.6L20 17.2L18.9333 18.9333Z" fill="white"/>
</svg>
