<svg width="29" height="29" viewBox="0 0 29 29" fill="none" xmlns="http://www.w3.org/2000/svg">
<path d="M5.73342 28.7544C4.94516 28.7544 4.2455 28.5015 3.63446 27.9956C3.02232 27.4897 2.6483 26.8507 2.5124 26.0786L0.0252722 11.4618C-0.0562728 10.9826 0.0595212 10.5502 0.372654 10.1647C0.6847 9.77809 1.09895 9.5848 1.6154 9.5848H27.139C27.6555 9.5848 28.0697 9.77809 28.3817 10.1647C28.6949 10.5502 28.8107 10.9826 28.7291 11.4618L26.242 26.0786C26.1061 26.8507 25.7326 27.4897 25.1216 27.9956C24.5094 28.5015 23.8092 28.7544 23.021 28.7544H5.73342ZM11.1154 19.1696H17.639C18.1011 19.1696 18.4887 19.0162 18.8018 18.7095C19.1139 18.4039 19.2699 18.0247 19.2699 17.5721C19.2699 17.1195 19.1139 16.7398 18.8018 16.4331C18.4887 16.1275 18.1011 15.9747 17.639 15.9747H11.1154C10.6533 15.9747 10.2662 16.1275 9.9542 16.4331C9.64106 16.7398 9.4845 17.1195 9.4845 17.5721C9.4845 18.0247 9.64106 18.4039 9.9542 18.7095C10.2662 19.0162 10.6533 19.1696 11.1154 19.1696ZM4.59179 7.98733C4.12971 7.98733 3.7421 7.83451 3.42896 7.52886C3.11692 7.22214 2.96089 6.84248 2.96089 6.38986C2.96089 5.93725 3.11692 5.55759 3.42896 5.25087C3.7421 4.94522 4.12971 4.7924 4.59179 4.7924H24.1626C24.6247 4.7924 25.0118 4.94522 25.3238 5.25087C25.6369 5.55759 25.7935 5.93725 25.7935 6.38986C25.7935 6.84248 25.6369 7.22214 25.3238 7.52886C25.0118 7.83451 24.6247 7.98733 24.1626 7.98733H4.59179ZM7.8536 3.19493C7.39151 3.19493 7.0039 3.04158 6.69076 2.73486C6.37872 2.42921 6.22269 2.05008 6.22269 1.59747C6.22269 1.14485 6.37872 0.765186 6.69076 0.458473C7.0039 0.152824 7.39151 0 7.8536 0H20.9008C21.3629 0 21.75 0.152824 22.062 0.458473C22.3751 0.765186 22.5317 1.14485 22.5317 1.59747C22.5317 2.05008 22.3751 2.42921 22.062 2.73486C21.75 3.04158 21.3629 3.19493 20.9008 3.19493H7.8536Z" fill="#722CB2"/>
</svg>
