<svg width="24" height="25" viewBox="0 0 24 25" fill="none" xmlns="http://www.w3.org/2000/svg">
<path d="M11.3684 4.26829H7.57895V2.43902H8.21053C8.90526 2.43902 9.47368 1.89024 9.47368 1.21951C9.47368 0.54878 8.90526 0 8.21053 0H4.42105C3.72632 0 3.15789 0.54878 3.15789 1.21951C3.15789 1.89024 3.72632 2.43902 4.42105 2.43902H5.05263V4.26829H1.26316C0.568421 4.26829 0 4.81707 0 5.4878C0 6.15854 0.568421 6.70732 1.26316 6.70732V15.8537C1.26316 17.1951 2.4 18.2927 3.78947 18.2927H5.05263V23.1707L7.57895 25V18.2927H8.8421C10.2316 18.2927 11.3684 17.1951 11.3684 15.8537V6.70732C12.0632 6.70732 12.6316 6.15854 12.6316 5.4878C12.6316 4.81707 12.0632 4.26829 11.3684 4.26829ZM8.8421 8.53658H6.63158C6.11368 8.53658 5.68421 8.95122 5.68421 9.45122C5.68421 9.95122 6.11368 10.3659 6.63158 10.3659H8.8421V12.1951H6.63158C6.11368 12.1951 5.68421 12.6098 5.68421 13.1098C5.68421 13.6098 6.11368 14.0244 6.63158 14.0244H8.8421V15.8537H3.78947V6.70732H8.8421V8.53658ZM22.1053 10.3659V9.7561C22.8 9.7561 23.3684 9.20732 23.3684 8.53658C23.3684 7.86585 22.8 7.31707 22.1053 7.31707H15.7895C15.0947 7.31707 14.5263 7.86585 14.5263 8.53658C14.5263 9.20732 15.0947 9.7561 15.7895 9.7561V10.3659C15.7895 10.9756 13.8947 11.7805 13.8947 14.0244V21.9512C13.8947 23.2927 15.0316 24.3902 16.4211 24.3902H21.4737C22.8632 24.3902 24 23.2927 24 21.9512V14.0244C24 11.7805 22.1053 10.9756 22.1053 10.3659ZM18.3158 10.3659V9.7561H19.5789V10.3659C19.5789 12.3171 21.4737 12.8049 21.4737 14.0244V14.6341H16.4211C16.4211 14.378 16.4211 14.1585 16.4211 14.0244C16.4211 12.8049 18.3158 12.3171 18.3158 10.3659ZM16.4211 21.9512C16.4211 21.9512 16.4211 21.1829 16.4211 20.122H21.4737V21.9512H16.4211Z" fill="#F9F5FF"/>
</svg>
