<svg width="51" height="48" viewBox="0 0 51 48" fill="none" xmlns="http://www.w3.org/2000/svg">
<path fill-rule="evenodd" clip-rule="evenodd" d="M16.6826 28.4632L16.6688 28.4679L16.5919 28.5232L16.569 28.5318L16.5517 28.5298L16.4608 28.5012C16.4477 28.5002 16.4386 28.5041 16.4336 28.513L16.4309 28.5256L16.4948 29.0344L16.5046 29.057L16.519 29.0704L16.6563 29.1374L16.6748 29.1392L16.6882 29.1321L16.7965 29.0243L16.8075 29.003L16.8089 28.9822L16.705 28.4813C16.6998 28.4692 16.6923 28.4632 16.6826 28.4632ZM16.9722 28.2779L16.956 28.2831L16.757 28.429L16.7472 28.4427L16.7458 28.4563L16.8514 28.9606L16.8597 28.9737L16.8707 28.9816L17.1261 29.0508C17.1417 29.0523 17.1526 29.0472 17.1588 29.0357L17.1607 29.0184L17.0001 28.3C16.9937 28.2857 16.9844 28.2783 16.9722 28.2779ZM16.1283 28.4206C16.1225 28.4183 16.1162 28.4183 16.1104 28.4206C16.1047 28.4229 16.1001 28.4274 16.0976 28.433L16.0932 28.4507L16.1735 29.1824C16.1767 29.1964 16.185 29.2048 16.1983 29.2074L16.2157 29.2021L16.4348 29.0528L16.445 29.0414L16.4464 29.0279L16.3833 28.5166L16.3774 28.503L16.3636 28.4931L16.1283 28.4206Z" fill="#C5B2F0"/>
<path fill-rule="evenodd" clip-rule="evenodd" d="M14.1489 17.3333L3.98106 11.7008C3.63579 11.5099 3.33482 11.248 3.09793 10.9324C2.86104 10.6169 2.69358 10.2548 2.60655 9.86995C2.51951 9.48509 2.51488 9.08618 2.59295 8.6994C2.67102 8.31263 2.83002 7.94675 3.05953 7.62578C3.28903 7.30482 3.58383 7.03603 3.92457 6.83708C4.26532 6.63813 4.64429 6.51351 5.03661 6.4714C5.42893 6.4293 5.82572 6.47067 6.20093 6.59279C6.57613 6.7149 6.92125 6.91501 7.21363 7.17997L15.8316 14.9799C17.2629 14.0492 19.6013 13.5673 21.9131 15.2193C23.311 16.2199 24.301 17.5625 24.788 18.9159C25.2616 20.2326 25.3219 21.771 24.483 22.9442C23.6452 24.1173 22.1689 24.5579 20.7709 24.5354C19.3327 24.5123 17.7409 24.0099 16.343 23.0093C14.0298 21.3563 13.731 18.9887 14.1489 17.3333Z" fill="#C5B2F0"/>
<path d="M41.9832 36.0538C41.9832 38.5596 39.9329 40.6099 37.427 40.6099H14.6462C12.1404 40.6099 10.0901 38.5596 10.0901 36.0538V20.1072H5.53394V15.551H46.5393V20.1072H41.9832V36.0538Z" fill="#9D87D2"/>
</svg>
