<svg width="29" height="23" viewBox="0 0 29 23" fill="none" xmlns="http://www.w3.org/2000/svg">
<path d="M5.85097e-06 1.19211C5.85097e-06 0.533685 0.53369 0 1.19211 0H27.229C27.8874 0 28.4211 0.533685 28.4211 1.19211V3.75H23.7774C22.8537 3.75 22.1053 4.45658 22.1053 5.32895C22.1053 6.20132 22.8537 6.9079 23.7774 6.9079H28.4211V7.89474C28.4218 8.68832 28.356 9.48056 28.2245 10.2632H27.6316C21.12 10.2632 15.8369 15.5179 15.7895 22.0184C14.7401 22.1345 13.681 22.1345 12.6316 22.0184C12.5842 15.5179 7.30106 10.2632 0.78948 10.2632H0.196585C0.065042 9.48056 -0.000714282 8.68832 5.85097e-06 7.89474V6.9079H4.64369C5.56738 6.9079 6.3158 6.20132 6.3158 5.32895C6.3158 4.45658 5.56738 3.75 4.64369 3.75H5.85097e-06V1.19211Z" fill="#9334EA"/>
<path d="M27.8662 11.842C26.4428 16.7747 22.4188 20.6052 17.3741 21.7515C17.562 16.2473 22.0817 11.842 27.6317 11.842H27.8662ZM0.789592 11.842C6.33959 11.842 10.8601 16.2473 11.0464 21.7515C6.00249 20.6052 1.97933 16.7747 0.555908 11.842H0.789592Z" fill="#9334EA"/>
</svg>
