<svg width="38" height="38" viewBox="0 0 38 38" fill="none" xmlns="http://www.w3.org/2000/svg">
<path d="M4.73682 9.08688C4.73682 8.42846 5.27051 7.89478 5.92893 7.89478H31.9658C32.6242 7.89478 33.1579 8.42846 33.1579 9.08688V11.6448H28.5142C27.5905 11.6448 26.8421 12.3514 26.8421 13.2237C26.8421 14.0961 27.5905 14.8027 28.5142 14.8027H33.1579V15.7895C33.1586 16.5831 33.0928 17.3753 32.9613 18.1579H32.3684C25.8568 18.1579 20.5737 23.4127 20.5263 29.9132C19.4769 30.0292 18.4178 30.0292 17.3684 29.9132C17.321 23.4127 12.0379 18.1579 5.5263 18.1579H4.9334C4.80186 17.3753 4.7361 16.5831 4.73682 15.7895V14.8027H9.38051C10.3042 14.8027 11.0526 14.0961 11.0526 13.2237C11.0526 12.3514 10.3042 11.6448 9.38051 11.6448H4.73682V9.08688Z" fill="white"/>
<path d="M32.603 19.7369C31.1796 24.6696 27.1556 28.5001 22.1109 29.6464C22.2988 24.1422 26.8185 19.7369 32.3685 19.7369H32.603ZM5.52641 19.7369C11.0764 19.7369 15.5969 24.1422 15.7833 29.6464C10.7393 28.5001 6.71615 24.6696 5.29272 19.7369H5.52641Z" fill="white"/>
</svg>
