<svg width="32" height="32" viewBox="0 0 32 32" fill="none" xmlns="http://www.w3.org/2000/svg">
<path d="M30 18.9474V20.5263C30 23.5421 28.3105 26.1632 25.8158 27.4895L26.8421 31.579H23.6842L22.8947 28.4211H8.68421L7.89474 31.579H4.73684L5.76316 27.4895C4.49905 26.8183 3.44164 25.8155 2.70446 24.5887C1.96728 23.362 1.57818 21.9576 1.57895 20.5263V18.9474H0V15.7895H28.4211V4.73684C28.4211 4.31808 28.2547 3.91647 27.9586 3.62036C27.6625 3.32425 27.2609 3.1579 26.8421 3.1579C26.0526 3.1579 25.4526 3.69474 25.2632 4.40526C26.2579 5.2579 26.8421 6.52105 26.8421 7.89474H17.3684C17.3684 6.63845 17.8675 5.43362 18.7558 4.54529C19.6441 3.65695 20.849 3.1579 22.1053 3.1579H22.3737C23.0211 1.32632 24.7737 0 26.8421 0C28.0984 0 29.3032 0.499059 30.1916 1.38739C31.0799 2.27572 31.579 3.48055 31.579 4.73684V18.9474H30ZM26.8421 18.9474H4.73684V20.5263C4.73684 21.7826 5.2359 22.9874 6.12423 23.8758C7.01256 24.7641 8.2174 25.2632 9.47369 25.2632H22.1053C23.3616 25.2632 24.5664 24.7641 25.4547 23.8758C26.3431 22.9874 26.8421 21.7826 26.8421 20.5263V18.9474Z" fill="white"/>
</svg>
