<svg width="34" height="34" viewBox="0 0 34 34" fill="none" xmlns="http://www.w3.org/2000/svg">
<path d="M28.1808 15.2251C29.783 13.186 30.0743 10.4186 29.2004 8.08815L30.3656 6.92293C30.9064 6.38211 31.2103 5.64861 31.2103 4.88378C31.2103 4.11896 30.9064 3.38545 30.3656 2.84464C29.8248 2.30383 29.0913 2 28.3265 2C27.5616 2 26.8281 2.30383 26.2873 2.84464L25.1221 4.00986C23.9387 3.58995 22.6711 3.46336 21.4281 3.64094C20.185 3.81852 19.0036 4.29497 17.9851 5.02944" stroke="white" stroke-width="4" stroke-linecap="round" stroke-linejoin="round"/>
<path d="M15.5093 4.59239C15.7815 4.32551 16.1476 4.17603 16.5288 4.17603C16.9101 4.17603 17.2761 4.32551 17.5484 4.59239L28.618 15.662C28.8849 15.9343 29.0344 16.3003 29.0344 16.6816C29.0344 17.0628 28.8849 17.4289 28.618 17.7012L26.2876 20.0316C26.0153 20.2985 25.6493 20.448 25.268 20.448C24.8868 20.448 24.5207 20.2985 24.2484 20.0316L13.1788 8.96198C12.9119 8.68971 12.7625 8.32366 12.7625 7.94241C12.7625 7.56115 12.9119 7.1951 13.1788 6.92283L15.5093 4.59239Z" stroke="white" stroke-width="4" stroke-linecap="round" stroke-linejoin="round"/>
<path d="M13.6158 9.39905L2.98316 20.0317C1.67228 21.3426 1.67228 23.673 2.98316 24.9839L8.22667 30.2274C9.53755 31.5383 11.868 31.5383 13.1789 30.2274L23.8115 19.5948M4.87665 18.1382L7.78971 21.0513M9.24624 13.7686L12.1593 16.6817" stroke="white" stroke-width="4" stroke-linecap="round" stroke-linejoin="round"/>
</svg>
