<svg width="20" height="20" viewBox="0 0 20 20" fill="none" xmlns="http://www.w3.org/2000/svg">
<path d="M1.84114 9.2557L9.2557 1.84114C10.4373 0.662138 12.0384 0 13.7076 0C15.3768 0 16.9778 0.662138 18.1595 1.84114C20.6135 4.29518 20.6135 8.28038 18.1595 10.7449L10.7449 18.1595C8.28038 20.6135 4.29518 20.6135 1.84114 18.1595C0.662138 16.9778 0 15.3768 0 13.7076C0 12.0384 0.662138 10.4373 1.84114 9.2557ZM3.33035 10.7449C2.80765 11.2635 2.43143 11.9111 2.23988 12.6221C2.04832 13.3331 2.04825 14.082 2.23966 14.793L8.52159 8.52159L12.9682 12.9682L16.6703 9.2557C17.0612 8.86771 17.3715 8.40617 17.5833 7.89768C17.795 7.3892 17.9041 6.84384 17.9041 6.29302C17.9041 5.74221 17.795 5.19685 17.5833 4.68836C17.3715 4.17988 17.0612 3.71834 16.6703 3.33035C16.2823 2.93938 15.8207 2.62907 15.3122 2.41732C14.8038 2.20556 14.2584 2.09654 13.7076 2.09654C13.1568 2.09654 12.6114 2.20556 12.1029 2.41732C11.5944 2.62907 11.1329 2.93938 10.7449 3.33035L3.33035 10.7449Z" fill="#9334EA"/>
</svg>
