<svg width="52" height="38" viewBox="0 0 52 38" fill="none" xmlns="http://www.w3.org/2000/svg">
<path d="M19.2483 3.36316V7.22644L19.304 7.35437L22.6194 14.911V33.3905H2.00024V14.9081L5.3147 7.35437L5.37134 7.22644V3.36316H19.2483Z" stroke="#C5B2F0" stroke-width="1.33333"/>
<path d="M17.0921 34.0571H23.2859V14.7701L19.9146 7.0867V2.69617H4.70455V7.0867L1.33325 14.7701V34.0571H17.0921ZM17.0921 34.0571V14.7701L19.5618 8.04792M2.11727 14.7701H16.3081M5.48857 7.0867H19.1305" stroke="#C5B2F0" stroke-width="2.66667" stroke-linecap="square"/>
<path d="M6.03735 27.7849V21.5127H6.03892L9.17344 24.6488L12.2938 21.5127H12.3095V27.7849" stroke="#C5B2F0" stroke-width="2.66667" stroke-linecap="square"/>
<path d="M44.0686 14.6707C45.1188 12.2053 44.6652 9.36573 43.1666 7.27553L44.0158 5.79958C44.41 5.11455 44.5159 4.30099 44.3102 3.53788C44.1046 2.77477 43.6042 2.12462 42.9191 1.73046C42.2341 1.33629 41.4205 1.2304 40.6574 1.43608C39.8943 1.64175 39.2442 2.14214 38.85 2.82718L38.0008 4.30313C36.7071 4.2024 35.4084 4.41696 34.2158 4.92842C33.0233 5.43988 31.9727 6.23297 31.154 7.23967" stroke="#9D87D2" stroke-width="2.66667" stroke-linecap="round" stroke-linejoin="round"/>
<path d="M28.566 7.46949C28.7659 7.12999 29.0909 6.88241 29.4713 6.77988C29.8517 6.67736 30.2571 6.72807 30.6005 6.92113L44.622 14.9891C44.9615 15.189 45.2091 15.514 45.3116 15.8944C45.4142 16.2748 45.3634 16.6802 45.1704 17.0236L43.4719 19.9755C43.272 20.315 42.947 20.5626 42.5666 20.6651C42.1862 20.7677 41.7808 20.717 41.4373 20.5239L27.4158 12.456C27.0763 12.2561 26.8287 11.931 26.7262 11.5506C26.6237 11.1702 26.6744 10.7648 26.8675 10.4214L28.566 7.46949Z" stroke="#9D87D2" stroke-width="2.66667" stroke-linecap="round" stroke-linejoin="round"/>
<path d="M27.9696 12.7745L20.2201 26.2426C19.2647 27.903 19.8914 30.2282 21.5518 31.1837L28.1936 35.0053C29.8541 35.9607 32.1793 35.334 33.1347 33.6736L40.8841 20.2055M21.6002 23.8442L25.29 25.9673M24.7849 18.3093L28.4747 20.4325" stroke="#9D87D2" stroke-width="2.66667" stroke-linecap="round" stroke-linejoin="round"/>
</svg>
