<svg width="50" height="57" viewBox="0 0 50 57" fill="none" xmlns="http://www.w3.org/2000/svg">
<path d="M39.3989 6.11531C39.1373 5.89167 38.8045 5.7689 38.4604 5.76917C38.1163 5.76943 37.7836 5.89271 37.5224 6.11675L37.394 6.22781C36.8772 6.68848 36.3709 7.16071 35.8753 7.64416C34.6147 8.87234 33.4211 10.1675 32.2998 11.524C30.9988 13.1019 29.6705 14.9466 28.6623 16.8923C27.6599 18.825 26.9229 20.9538 26.9229 23.0769C26.9229 26.1371 28.1385 29.072 30.3024 31.2359C32.4663 33.3997 35.4012 34.6154 38.4614 34.6154C41.5216 34.6154 44.4564 33.3997 46.6203 31.2359C48.7842 29.072 49.9999 26.1371 49.9999 23.0769C49.9999 20.9538 49.2628 18.825 48.2604 16.8923C47.2508 14.9451 45.9239 13.1019 44.6229 11.5225C43.156 9.7485 41.566 8.07994 39.8647 6.52925L39.4003 6.11675L39.3989 6.11531ZM29.8075 23.0769C29.8075 21.5942 30.3325 19.937 31.2224 18.2192C32.108 16.5144 33.3036 14.8427 34.5253 13.3572C35.7487 11.8771 37.0633 10.4749 38.4614 9.15859C39.8589 10.474 41.1729 11.8753 42.396 13.3543C43.6191 14.8399 44.8147 16.5129 45.6989 18.2178C46.5902 19.9355 47.1152 21.5928 47.1152 23.0755C47.1152 25.3706 46.2035 27.5718 44.5806 29.1947C42.9577 30.8176 40.7565 31.7293 38.4614 31.7293C36.1662 31.7293 33.9651 30.8176 32.3421 29.1947C30.7192 27.5718 29.8075 25.3706 29.8075 23.0755V23.0769Z" fill="#9D87D2"/>
<path d="M33.2114 23.1376C32.8447 23.2464 32.5364 23.4965 32.3541 23.8327C32.1718 24.1689 32.1305 24.5637 32.2392 24.9303C32.5482 25.9636 33.1092 26.9039 33.8718 27.6665C34.6345 28.4291 35.5747 28.9902 36.608 29.2991C36.79 29.3547 36.9812 29.3737 37.1706 29.355C37.3599 29.3363 37.5437 29.2804 37.7114 29.1904C37.8791 29.1004 38.0272 28.978 38.1474 28.8305C38.2676 28.683 38.3574 28.5131 38.4116 28.3307C38.4658 28.1483 38.4834 27.957 38.4634 27.7678C38.4434 27.5785 38.3861 27.3951 38.2948 27.2281C38.2036 27.0611 38.0802 26.9139 37.9318 26.7948C37.7834 26.6757 37.6129 26.5871 37.4301 26.5342C36.8567 26.362 36.3349 26.0502 35.9115 25.6268C35.4881 25.2035 35.1764 24.6817 35.0042 24.1082C34.895 23.7419 34.6448 23.4339 34.3086 23.2519C33.9725 23.0698 33.5778 23.0287 33.2114 23.1376Z" fill="#9D87D2"/>
<path d="M21.2081 25.375C20.9247 25.1327 20.5641 24.9997 20.1914 25C19.8186 25.0003 19.4582 25.1338 19.1752 25.3766L19.0362 25.4969C18.4763 25.9959 17.9277 26.5075 17.3909 27.0312C16.0252 28.3618 14.7322 29.7648 13.5174 31.2344C12.108 32.9438 10.669 34.9422 9.57676 37.05C8.49082 39.1438 7.69238 41.45 7.69238 43.7501C7.69238 47.0653 9.00935 50.2447 11.3536 52.5889C13.6978 54.9331 16.8772 56.2501 20.1924 56.2501C23.5076 56.2501 26.6871 54.9331 29.0313 52.5889C31.3755 50.2447 32.6925 47.0653 32.6925 43.7501C32.6925 41.45 31.894 39.1438 30.8081 37.05C29.7143 34.9406 28.2768 32.9438 26.8674 31.2328C25.2783 29.3109 23.5558 27.5033 21.7127 25.8234L21.2096 25.3766L21.2081 25.375ZM10.8174 43.7501C10.8174 42.1438 11.3861 40.3485 12.3502 38.4875C13.3096 36.6407 14.6049 34.8297 15.9283 33.2203C17.2537 31.617 18.6778 30.0978 20.1924 28.6719C21.7064 30.0969 23.13 31.6149 24.4549 33.2172C25.7799 34.8266 27.0753 36.6391 28.0331 38.486C28.9987 40.3469 29.5675 42.1422 29.5675 43.7485C29.5675 46.2349 28.5797 48.6195 26.8216 50.3776C25.0634 52.1358 22.6788 53.1235 20.1924 53.1235C17.706 53.1235 15.3214 52.1358 13.5633 50.3776C11.8051 48.6195 10.8174 46.2349 10.8174 43.7485V43.7501Z" fill="#9D87D2"/>
<path d="M14.5049 43.8157C14.1077 43.9337 13.7736 44.2046 13.5761 44.5688C13.3787 44.933 13.3339 45.3607 13.4517 45.7579C13.7864 46.8773 14.3942 47.896 15.2204 48.7221C16.0465 49.5483 17.0652 50.1561 18.1846 50.4908C18.3817 50.551 18.5888 50.5715 18.794 50.5513C18.9991 50.5311 19.1983 50.4705 19.3799 50.373C19.5615 50.2754 19.722 50.1429 19.8522 49.9831C19.9824 49.8233 20.0797 49.6393 20.1384 49.4417C20.1972 49.2441 20.2163 49.0368 20.1946 48.8318C20.1729 48.6268 20.1108 48.4281 20.012 48.2472C19.9131 48.0663 19.7795 47.9067 19.6187 47.7777C19.4579 47.6487 19.2732 47.5528 19.0752 47.4954C18.4539 47.3089 17.8887 46.9711 17.43 46.5125C16.9714 46.0538 16.6336 45.4885 16.447 44.8673C16.3288 44.4704 16.0578 44.1367 15.6936 43.9396C15.3294 43.7424 14.9018 43.6979 14.5049 43.8157Z" fill="#9D87D2"/>
<path d="M11.4363 0.317301C11.1966 0.112298 10.8915 -0.000242061 10.5761 3.90932e-07C10.2606 0.000242843 9.95567 0.113251 9.71626 0.318623L9.59859 0.420426C9.12485 0.842704 8.66066 1.27559 8.2064 1.71875C7.05086 2.84457 5.95676 4.03179 4.92886 5.27525C3.73631 6.72165 2.51864 8.41264 1.59448 10.1962C0.675603 11.9678 0 13.9193 0 15.8654C0 18.6706 1.11435 21.3609 3.09792 23.3445C5.08148 25.328 7.77177 26.4424 10.577 26.4424C13.3821 26.4424 16.0724 25.328 18.056 23.3445C20.0396 21.3609 21.1539 18.6706 21.1539 15.8654C21.1539 13.9193 20.4783 11.9678 19.5594 10.1962C18.634 8.41132 17.4176 6.72165 16.225 5.27393C14.8804 3.64772 13.4229 2.11821 11.8634 0.696749L11.4377 0.318623L11.4363 0.317301ZM2.64424 15.8654C2.64424 14.5063 3.12549 12.9872 3.94124 11.4125C4.75302 9.84978 5.84906 8.31745 6.96889 6.95566C8.09035 5.59896 9.29538 4.31356 10.577 3.10697C11.858 4.31275 13.0626 5.59726 14.1837 6.95302C15.3049 8.3148 16.4009 9.84846 17.2114 11.4112C18.0284 12.9859 18.5097 14.505 18.5097 15.8641C18.5097 17.968 17.6739 19.9857 16.1862 21.4734C14.6986 22.9611 12.6808 23.7968 10.577 23.7968C8.47307 23.7968 6.45535 22.9611 4.96768 21.4734C3.48001 19.9857 2.64424 17.968 2.64424 15.8641V15.8654Z" fill="#9D87D2"/>
<path d="M5.76504 15.9209C5.42898 16.0207 5.14631 16.2499 4.97921 16.5581C4.8121 16.8663 4.77423 17.2282 4.87393 17.5643C5.15714 18.5115 5.67142 19.3734 6.37048 20.0725C7.06954 20.7715 7.93144 21.2858 8.87863 21.569C9.04546 21.6199 9.22072 21.6373 9.39431 21.6202C9.5679 21.6031 9.73639 21.5518 9.89007 21.4693C10.0438 21.3868 10.1796 21.2747 10.2897 21.1395C10.3999 21.0042 10.4822 20.8485 10.5319 20.6813C10.5816 20.5141 10.5978 20.3387 10.5794 20.1653C10.561 19.9918 10.5085 19.8237 10.4249 19.6706C10.3413 19.5175 10.2282 19.3825 10.0921 19.2734C9.95609 19.1642 9.79979 19.083 9.63224 19.0345C9.10657 18.8766 8.62827 18.5909 8.24017 18.2028C7.85208 17.8147 7.5663 17.3364 7.40843 16.8107C7.30834 16.4749 7.07903 16.1925 6.77088 16.0257C6.46273 15.8588 6.10096 15.8212 5.76504 15.9209Z" fill="#9D87D2"/>
</svg>
