<svg width="58" height="50" viewBox="0 0 58 50" fill="none" xmlns="http://www.w3.org/2000/svg">
<path d="M39.6487 0L36.2141 1.30208C32.3481 2.76667 29.8385 4.28125 28.1772 5.86042C26.8437 7.1262 25.8609 8.71861 25.3254 10.4812C24.9189 11.7937 24.7571 12.5562 24.4833 12.9562C24.2386 13.3062 23.8196 13.7271 22.4715 14.1271C22.4487 14.1104 22.2848 14.0062 22.2786 13.9979H22.2143C21.191 13.3376 20.0441 12.8945 18.844 12.6958C15.3928 12.1104 11.7798 13.6229 9.77005 16.8625L9.70369 16.9271C8.37206 19.204 7.8253 21.8585 8.14815 24.4792C8.25393 25.325 8.46548 26.1875 8.79733 27.0187C7.25725 27.1197 5.76564 27.6002 4.45434 28.4177C3.14305 29.2353 2.05244 30.3647 1.27893 31.7062H1.21463C-1.31362 36.1896 0.225317 41.9771 4.71354 44.5312H4.77991V44.5958C5.01428 44.7104 7.7769 46.175 11.9084 47.4604C16.0399 48.7458 21.8244 50 29.0192 50C36.2141 50 41.9903 48.7958 46.1301 47.525C50.2222 46.2646 52.5223 45.0271 53.3249 44.5312L53.3892 44.4667C57.8131 41.8854 59.3044 36.2062 56.7595 31.8354H56.8238C55.6965 29.8119 53.8414 28.2981 51.6387 27.6042C51.6387 27.5958 51.5744 27.6125 51.5744 27.6042C51.2554 26.4285 50.7072 25.3282 49.9617 24.3669C49.2162 23.4056 48.2882 22.6025 47.2314 22.0042C47.5155 21.0938 47.6856 20.0354 47.6856 18.75C47.6856 16.3333 46.827 14.2979 45.6759 12.825C44.5248 11.3521 43.1414 10.3667 41.982 9.43958C40.8226 8.5125 39.8914 7.65833 39.3894 6.83542C38.8875 6.01458 38.6366 5.23125 38.9352 3.64583L39.6487 0ZM34.9821 6.64167C35.1771 7.51042 35.4674 8.35833 35.8905 9.05C36.8695 10.6542 38.1823 11.6708 39.3894 12.6312C40.5965 13.5896 41.7227 14.5104 42.4362 15.4292C43.1476 16.35 43.5375 17.2292 43.5375 18.75C43.5375 19.75 43.4235 20.3604 43.2783 20.8333C37.6224 20.0042 32.6737 18.5708 29.0192 17.1875C28.2892 16.9104 27.6504 16.6187 27.0095 16.3417C27.3524 16.0319 27.6574 15.6822 27.9179 15.3C28.8492 13.9396 28.9778 12.6229 29.2785 11.6542C29.5792 10.6854 29.9194 9.9125 31.029 8.85417C31.6927 8.21875 33.5386 7.39583 34.9821 6.63958V6.64167ZM17.2221 16.6C18.1388 16.5938 19.0784 16.8792 19.9453 17.4479C21.086 18.2458 23.5334 19.4979 27.5944 21.0292C32.7601 22.9812 38.1306 24.3351 43.6018 25.0646H43.6682C45.1096 25.2437 46.3001 26.0979 47.0385 27.3437C46.3001 27.4812 45.539 27.6771 44.8338 27.9958C44.7301 28.0437 44.616 28.0104 44.5102 28.0583C44.4273 28.0833 44.4128 28.1083 44.3796 28.125C44.3153 28.1583 44.251 28.1583 44.1867 28.1896C44.1286 28.2146 44.0623 28.2875 43.9917 28.3208C43.8134 28.4014 43.5541 28.5097 43.214 28.6458C42.542 28.9312 41.5361 29.2979 40.2315 29.6875C37.6224 30.4604 33.831 31.25 29.0192 31.25C25.4457 31.25 22.3927 30.8438 20.0096 30.3375C19.2629 30.1604 18.5432 29.9625 17.8713 29.7542C16.519 29.3208 15.2621 28.7021 15.2787 28.7125C13.269 27.3521 12.4518 25.7167 12.2319 23.9583C12.0142 22.2 12.5016 20.3292 13.269 19.0104C14.2417 17.4396 15.6997 16.6167 17.2221 16.6ZM8.8637 31.1208C9.85094 31.0458 10.888 31.2917 11.8441 31.8354C11.8607 31.8438 11.8918 31.8937 11.9084 31.9021C12.0225 31.9646 12.1676 32.0312 12.2983 32.0958C12.5576 32.2354 12.8562 32.3729 13.269 32.5521C14.0958 32.9104 15.2407 33.3014 16.7036 33.725C17.2221 33.8708 17.8547 34.0333 18.4541 34.1792C18.6739 34.2375 18.8751 34.3187 19.1032 34.375C19.1261 34.3833 19.1447 34.3667 19.1675 34.375C19.993 34.5875 20.8123 34.7729 21.6315 34.8958V34.8312C24.0742 35.2273 26.5449 35.4231 29.0192 35.4167C34.2769 35.4167 38.4748 34.5292 41.3992 33.6583C42.8655 33.2208 44.0394 32.7562 44.8338 32.4229C45.1242 32.2979 45.288 32.1854 45.483 32.0958H45.6759L45.7422 32.0312L46.1301 31.8354C48.706 30.4521 51.8005 31.2729 53.2606 33.8542V33.9188C54.6772 36.3521 53.86 39.5021 51.3152 40.95H51.2509V41.0167C51.0891 41.1125 48.7558 42.3917 44.9624 43.5542C41.1731 44.7188 35.7599 45.8333 29.0192 45.8333C22.2786 45.8333 16.8757 44.7354 13.074 43.5542C9.32414 42.3833 7.44505 41.3167 6.72329 40.95C6.6901 40.9333 6.68181 40.9021 6.65899 40.8854C4.17844 39.4125 3.40897 36.3354 4.84421 33.7896C5.5639 32.5771 6.6424 31.6729 7.8889 31.3146C8.20623 31.225 8.53185 31.1437 8.8637 31.1208Z" fill="#9D87D2"/>
</svg>
