<svg width="26" height="24" viewBox="0 0 26 24" fill="none" xmlns="http://www.w3.org/2000/svg">
<path d="M23.1663 12.1667V14.3337C23.1661 15.7547 22.4366 18.2677 19.8772 18.9714C19.3753 19.1055 18.8576 19.1714 18.3381 19.1667H7.66626C7.08315 19.1667 6.57237 19.0954 6.12622 18.9724H6.12524C3.56371 18.2697 2.83336 15.7552 2.83325 14.3337V12.1667H23.1663Z" fill="white" stroke="#9334EA"/>
<path d="M1 11.6667H2.33333H1ZM23.6667 11.6667C24.0203 11.6667 24.3594 11.5262 24.6095 11.2761C24.8595 11.0261 25 10.687 25 10.3333V5C25 3.66667 24.2 1 21 1C17.8 1 17 3.66667 17 5M23.6667 11.6667V14.3333C23.6667 15.8507 22.8893 18.664 20.0067 19.4547M23.6667 11.6667H2.33333H23.6667ZM2.33333 11.6667V14.3333C2.33333 15.8507 3.11067 18.664 5.99333 19.4547M5 22.3333L5.99333 19.4547L5 22.3333ZM5.99333 19.4547C6.48667 19.5907 7.04267 19.6667 7.66667 19.6667H18.3333C18.8981 19.6717 19.461 19.6004 20.0067 19.4547M21 22.3333L20.0067 19.4547L21 22.3333ZM17 5H14.3333H17ZM17 5H19.6667H17Z" fill="white"/>
<path d="M1 11.6667H2.33333M2.33333 11.6667H23.6667M2.33333 11.6667V14.3333C2.33333 15.8507 3.11067 18.664 5.99333 19.4547M23.6667 11.6667C24.0203 11.6667 24.3594 11.5262 24.6095 11.2761C24.8595 11.0261 25 10.687 25 10.3333V5C25 3.66667 24.2 1 21 1C17.8 1 17 3.66667 17 5M23.6667 11.6667V14.3333C23.6667 15.8507 22.8893 18.664 20.0067 19.4547M17 5H14.3333M17 5H19.6667M20.0067 19.4547C19.461 19.6004 18.8981 19.6717 18.3333 19.6667H7.66667C7.04267 19.6667 6.48667 19.5907 5.99333 19.4547M20.0067 19.4547L21 22.3333M5.99333 19.4547L5 22.3333" stroke="#9334EA" stroke-width="2" stroke-linecap="round" stroke-linejoin="round"/>
</svg>
