<svg width="67" height="62" viewBox="0 0 67 62" fill="none" xmlns="http://www.w3.org/2000/svg">
<path d="M36.2793 15.5386L40.3075 12.0856L47.6061 15.4816C54.563 13.8111 62.5133 23.1411 60.2704 33.79C58.0283 44.4409 49.2972 50.0078 43.9904 47.5386C41.9986 46.6118 41.386 45.1354 43.2335 43.9577C45.081 42.7801 47.3797 40.8858 48.9839 38.7878C53.8625 32.4002 53.1088 24.4686 45.5672 19.8602L36.2793 15.5386Z" fill="#C5B2F0"/>
<path d="M47.8895 37.67C52.4656 31.9326 51.4482 24.5677 43.8695 20.0389C45.2888 21.7938 47.5091 25.0643 44.8554 31.7979C43.3049 35.7305 40.4253 38.533 39.5089 39.2916C38.5913 40.0495 39.0086 40.8942 40.3018 41.1473C41.595 41.4003 44.6986 41.159 47.8876 37.6707" fill="#C5B2F0"/>
<path d="M31.5728 12.7001C31.9835 12.7005 32.3784 12.8567 32.677 13.1366C32.9756 13.4165 33.1553 13.799 33.1794 14.2061C33.2035 14.6131 33.0701 15.0139 32.8065 15.3266C32.543 15.6393 32.1691 15.8402 31.7613 15.8884L31.5728 15.8996C30.4563 15.8996 29.4301 17.0098 28.8484 18.3824C29.8423 17.8801 30.9288 17.584 32.0417 17.5121L32.4686 17.4993C37.2729 17.4993 41.2395 22.3833 41.2395 27.6096C41.2395 33.2839 40.2632 36.9873 37.3358 41.3322C34.6098 44.9332 30.7431 45.7363 27.0086 43.3063C26.9328 43.2582 26.8453 43.2313 26.7554 43.2285C26.6655 43.2257 26.5765 43.247 26.4978 43.2903C22.7359 45.7347 18.8692 44.9332 16.0901 41.2586C13.2174 36.9905 12.2395 33.2855 12.2395 27.6096L12.2459 27.2545C12.4199 22.1657 16.3156 17.4993 21.0104 17.4993C22.5248 17.4993 23.9942 17.9648 25.3411 18.7663C26.0161 15.6468 28.2701 12.7001 31.5728 12.7001ZM20.2403 22.5449C18.0492 23.9174 17.0728 25.8403 17.0728 28.6975C17.0728 29.1217 17.2426 29.5286 17.5447 29.8286C17.8469 30.1287 18.2567 30.2972 18.6839 30.2972C19.1112 30.2972 19.521 30.1287 19.8232 29.8286C20.1253 29.5286 20.2951 29.1217 20.2951 28.6975C20.2951 26.8978 20.7462 26.0131 21.9609 25.2516C22.3224 25.0251 22.5785 24.6652 22.6727 24.2512C22.767 23.8372 22.6918 23.4029 22.4636 23.044C22.2354 22.6851 21.873 22.4308 21.4561 22.3372C21.0391 22.2436 20.6018 22.3183 20.2403 22.5449Z" fill="#9D87D2"/>
</svg>
