<svg width="365" height="300" viewBox="0 0 365 300" fill="none" xmlns="http://www.w3.org/2000/svg">
<g opacity="0.2">
<path d="M0 247.651V192.081L60.1324 10.0671H96.4782V188.054H112.082V247.651H96.4782V300H63.9382V247.651H0ZM66.2217 85.7718L34.2526 188.054H66.2217V85.7718Z" fill="#9D87D2"/>
<path d="M128.021 148.993C128.021 102.819 132.207 66.443 140.58 39.8658C149.08 13.2886 162.717 0 181.493 0C200.268 0 213.842 13.2886 222.215 39.8658C230.715 66.443 234.965 102.819 234.965 148.993C234.965 195.705 230.715 232.349 222.215 258.926C213.842 285.503 200.268 298.792 181.493 298.792C162.717 298.792 149.08 285.503 140.58 258.926C132.207 232.349 128.021 195.705 128.021 148.993ZM202.996 148.993C202.996 121.879 201.6 101.074 198.809 86.5772C196.018 71.8121 190.246 64.4295 181.493 64.4295C172.739 64.4295 166.967 71.8121 164.176 86.5772C161.385 101.074 159.99 121.879 159.99 148.993C159.99 167.248 160.497 182.416 161.512 194.497C162.527 206.309 164.557 215.973 167.601 223.49C170.773 230.738 175.403 234.362 181.493 234.362C187.582 234.362 192.149 230.738 195.194 223.49C198.365 215.973 200.459 206.309 201.473 194.497C202.488 182.416 202.996 167.248 202.996 148.993Z" fill="#9D87D2"/>
<path d="M252.918 247.651V192.081L313.05 10.0671H349.396V188.054H365V247.651H349.396V300H316.856V247.651H252.918ZM319.14 85.7718L287.17 188.054H319.14V85.7718Z" fill="#9D87D2"/>
</g>
</svg>
