<svg width="20" height="20" viewBox="0 0 20 20" fill="none" xmlns="http://www.w3.org/2000/svg">
<rect x="0.5" y="3.3421" width="19" height="15.8421" rx="5.5" stroke="#41354C"/>
<path d="M9.8 15.472C9.59733 15.472 9.44267 15.4187 9.336 15.312C9.24 15.1947 9.192 15.04 9.192 14.848V12H6.392C6.2 12 6.05067 11.952 5.944 11.856C5.83733 11.7493 5.784 11.6 5.784 11.408C5.784 11.216 5.83733 11.072 5.944 10.976C6.05067 10.8693 6.2 10.816 6.392 10.816H9.192V8.048C9.192 7.856 9.24 7.70667 9.336 7.6C9.44267 7.49333 9.60267 7.44 9.816 7.44C10.008 7.44 10.152 7.49333 10.248 7.6C10.3547 7.70667 10.408 7.856 10.408 8.048V10.816H13.208C13.4107 10.816 13.56 10.8693 13.656 10.976C13.7627 11.072 13.816 11.216 13.816 11.408C13.816 11.6 13.7627 11.7493 13.656 11.856C13.56 11.952 13.4107 12 13.208 12H10.408V14.848C10.408 15.04 10.3547 15.1947 10.248 15.312C10.152 15.4187 10.0027 15.472 9.8 15.472Z" fill="#41354C"/>
</svg>
