<svg width="54" height="42" viewBox="0 0 54 42" fill="none" xmlns="http://www.w3.org/2000/svg">
<path d="M24.0396 5.83844L28.0677 2.38546L35.3664 5.78147C42.3233 4.11094 50.2735 13.4409 48.0307 24.0899C45.7886 34.7408 37.0574 40.3076 31.7507 37.8384C29.7588 36.9116 29.1462 35.4352 30.9937 34.2576C32.8412 33.0799 35.14 31.1856 36.7442 29.0876C41.6228 22.7 40.8691 14.7685 33.3274 10.16L24.0396 5.83844Z" fill="#C5B2F0"/>
<path d="M35.6498 27.9699C40.2258 22.2325 39.2085 14.8676 31.6298 10.3388C33.0491 12.0937 35.2693 15.3642 32.6157 22.0977C31.0651 26.0304 28.1855 28.8329 27.2692 29.5914C26.3515 30.3493 26.7689 31.1941 28.062 31.4471C29.3552 31.7001 32.4588 31.4589 35.6478 27.9706" fill="#C5B2F0"/>
<path d="M19.3333 2.99995C19.744 3.0004 20.1389 3.15653 20.4375 3.43643C20.7361 3.71634 20.9158 4.09889 20.9399 4.50593C20.964 4.91297 20.8306 5.31377 20.567 5.62645C20.3035 5.93912 19.9296 6.14007 19.5218 6.18822L19.3333 6.19942C18.2168 6.19942 17.1906 7.30964 16.6089 8.68221C17.6028 8.17996 18.6893 7.88387 19.8022 7.81196L20.2291 7.79916C25.0334 7.79916 29 12.6832 29 17.9095C29 23.5838 28.0237 27.2872 25.0963 31.632C22.3703 35.2331 18.5036 36.0361 14.7691 33.6061C14.6933 33.558 14.6058 33.5312 14.5159 33.5284C14.426 33.5255 14.337 33.5469 14.2583 33.5901C10.4964 36.0345 6.62972 35.2331 3.85055 31.5585C0.977944 27.2904 -5.17621e-07 23.5854 -3.74901e-07 17.9095L0.006444 17.5544C0.180444 12.4656 4.07611 7.79916 8.77089 7.79916C10.2853 7.79916 11.7547 8.26468 13.1016 9.06615C13.7766 5.94666 16.0306 2.99995 19.3333 2.99995ZM8.00078 12.8447C5.80967 14.2173 4.83333 16.1402 4.83333 18.9973C4.83333 19.4216 5.00307 19.8285 5.30522 20.1285C5.60736 20.4285 6.01715 20.5971 6.44444 20.5971C6.87174 20.5971 7.28153 20.4285 7.58367 20.1285C7.88581 19.8285 8.05556 19.4216 8.05556 18.9973C8.05556 17.1976 8.50667 16.313 9.72145 15.5515C10.0829 15.3249 10.339 14.9651 10.4332 14.551C10.5275 14.137 10.4523 13.7028 10.2241 13.3438C9.99594 12.9849 9.63351 12.7307 9.21655 12.6371C8.79959 12.5435 8.36227 12.6182 8.00078 12.8447Z" fill="#9D87D2"/>
</svg>
