<svg width="22" height="19" viewBox="0 0 22 19" fill="none" xmlns="http://www.w3.org/2000/svg">
<path d="M20.3077 0H1.69231C1.24348 0 0.813035 0.18198 0.495665 0.505906C0.178296 0.829833 0 1.26917 0 1.72727V17.2727C0 17.7308 0.178296 18.1702 0.495665 18.4941C0.813035 18.818 1.24348 19 1.69231 19H20.3077C20.7565 19 21.187 18.818 21.5043 18.4941C21.8217 18.1702 22 17.7308 22 17.2727V1.72727C22 1.26917 21.8217 0.829833 21.5043 0.505906C21.187 0.18198 20.7565 0 20.3077 0ZM5.07692 11.2273C5.07691 11.3971 5.02783 11.5632 4.93584 11.7047C4.84385 11.8462 4.71302 11.9569 4.55971 12.0229C4.4557 12.068 4.34379 12.0912 4.23077 12.0909H2.96154C2.73712 12.0909 2.5219 11.9999 2.36322 11.838C2.20453 11.676 2.11538 11.4563 2.11538 11.2273C2.11538 10.9982 2.20453 10.7786 2.36322 10.6166C2.5219 10.4546 2.73712 10.3636 2.96154 10.3636H3.38462V5.18182H2.96154C2.73712 5.18182 2.5219 5.09083 2.36322 4.92886C2.20453 4.7669 2.11538 4.54723 2.11538 4.31818C2.11538 4.08913 2.20453 3.86946 2.36322 3.7075C2.5219 3.54554 2.73712 3.45455 2.96154 3.45455H4.23077C4.37897 3.45489 4.52449 3.49496 4.65275 3.57074C4.78102 3.64652 4.88753 3.75536 4.96164 3.88636L7.19231 7.78568L9.42298 3.88636C9.49708 3.75536 9.6036 3.64652 9.73186 3.57074C9.86013 3.49496 10.0056 3.45489 10.1538 3.45455H11.4231C11.6475 3.45455 11.8627 3.54554 12.0214 3.7075C12.1801 3.86946 12.2692 4.08913 12.2692 4.31818C12.2692 4.54723 12.1801 4.7669 12.0214 4.92886C11.8627 5.09083 11.6475 5.18182 11.4231 5.18182H11V10.3636H11.4231C11.6475 10.3636 11.8627 10.4546 12.0214 10.6166C12.1801 10.7786 12.2692 10.9982 12.2692 11.2273C12.2692 11.4563 12.1801 11.676 12.0214 11.838C11.8627 11.9999 11.6475 12.0909 11.4231 12.0909H10.1538C10.0408 12.0912 9.92892 12.068 9.8249 12.0229C9.6716 11.9569 9.54077 11.8462 9.44877 11.7047C9.35678 11.5632 9.30771 11.3971 9.30769 11.2273V7.51256L7.92317 9.93182C7.84865 10.0622 7.74196 10.1704 7.61372 10.2455C7.48549 10.3207 7.34019 10.3602 7.19231 10.3602C7.04443 10.3602 6.89913 10.3207 6.77089 10.2455C6.64266 10.1704 6.53596 10.0622 6.46144 9.93182L5.07692 7.51256V11.2273ZM18.6154 15.5455H6.76923C6.54482 15.5455 6.32959 15.4545 6.17091 15.2925C6.01223 15.1305 5.92308 14.9109 5.92308 14.6818C5.92308 14.4528 6.01223 14.2331 6.17091 14.0711C6.32959 13.9092 6.54482 13.8182 6.76923 13.8182H18.6154C18.8398 13.8182 19.055 13.9092 19.2137 14.0711C19.3724 14.2331 19.4615 14.4528 19.4615 14.6818C19.4615 14.9109 19.3724 15.1305 19.2137 15.2925C19.055 15.4545 18.8398 15.5455 18.6154 15.5455ZM18.6154 12.0909H14.3846C14.1602 12.0909 13.945 11.9999 13.7863 11.838C13.6276 11.676 13.5385 11.4563 13.5385 11.2273C13.5385 10.9982 13.6276 10.7786 13.7863 10.6166C13.945 10.4546 14.1602 10.3636 14.3846 10.3636H18.6154C18.8398 10.3636 19.055 10.4546 19.2137 10.6166C19.3724 10.7786 19.4615 10.9982 19.4615 11.2273C19.4615 11.4563 19.3724 11.676 19.2137 11.838C19.055 11.9999 18.8398 12.0909 18.6154 12.0909ZM18.6154 8.63636H14.3846C14.1602 8.63636 13.945 8.54537 13.7863 8.38341C13.6276 8.22145 13.5385 8.00178 13.5385 7.77273C13.5385 7.54368 13.6276 7.32401 13.7863 7.16204C13.945 7.00008 14.1602 6.90909 14.3846 6.90909H18.6154C18.8398 6.90909 19.055 7.00008 19.2137 7.16204C19.3724 7.32401 19.4615 7.54368 19.4615 7.77273C19.4615 8.00178 19.3724 8.22145 19.2137 8.38341C19.055 8.54537 18.8398 8.63636 18.6154 8.63636Z" fill="#F9F5FF"/>
</svg>
