<svg width="16" height="16" viewBox="0 0 16 16" fill="none" xmlns="http://www.w3.org/2000/svg">
<path d="M4.50125 0.124864L5.01535 0.987767C5.08961 1.1192 5.13531 1.2735 5.14102 1.43351C5.14102 1.82267 4.8834 2.1484 4.53152 2.25412L4.67262 2.39356C4.78686 2.50785 4.85541 2.66786 4.85541 2.83358V3.42904H7.42592V2.83358C7.42592 2.66786 7.49447 2.50785 7.60871 2.39356L7.75152 2.25241C7.59339 2.20324 7.45274 2.10958 7.34639 1.98261C7.24003 1.85564 7.17245 1.70072 7.15173 1.53637C7.12888 1.33636 7.17458 1.14206 7.27169 0.987767L7.78008 0.124864C7.87719 -0.0408594 8.12281 -0.0408594 8.21992 0.124864L8.72831 0.987767C8.80828 1.1192 8.85398 1.2735 8.85969 1.43351C8.85969 1.82438 8.59979 2.15126 8.24563 2.25526L8.38558 2.39356C8.49982 2.50785 8.56837 2.66786 8.56837 2.83358V3.42904H11.1389V2.83358C11.1389 2.66786 11.2074 2.50785 11.3217 2.39356L11.4622 2.25469C11.3037 2.20559 11.1629 2.11153 11.0568 1.98391C10.9508 1.8563 10.884 1.70063 10.8647 1.5358C10.8418 1.33579 10.8875 1.14149 10.9846 0.987196L11.493 0.124292C11.5901 -0.0414308 11.8358 -0.0414308 11.9329 0.124292L12.4413 0.987196C12.5212 1.11863 12.5669 1.27293 12.5669 1.43293C12.5669 1.82324 12.3116 2.14954 11.958 2.25469L12.0985 2.39356C12.2185 2.50785 12.2813 2.66786 12.2813 2.83358V3.42904H14.2863C14.7408 3.42904 15.1767 3.60966 15.4981 3.93117C15.8195 4.25268 16 4.68874 16 5.14342V9.46251C16 9.79395 15.7024 9.99968 15.4231 9.96196V15.2857C15.4231 15.4751 15.3478 15.6568 15.2139 15.7908C15.08 15.9247 14.8984 16 14.709 16H1.28526C1.09588 16 0.914266 15.9247 0.780359 15.7908C0.646453 15.6568 0.571225 15.4751 0.571225 15.2857V9.95968C0.292467 9.99511 0 9.79281 0 9.46251V5.14342C0 4.68874 0.180547 4.25268 0.501923 3.93117C0.8233 3.60966 1.25918 3.42904 1.71367 3.42904H3.71296V2.83358C3.71296 2.66786 3.78151 2.50785 3.89575 2.39356L4.0357 2.25526C3.87591 2.20766 3.73361 2.11415 3.62648 1.98635C3.51934 1.85854 3.45209 1.70208 3.43306 1.53637C3.41021 1.33636 3.45591 1.14778 3.55302 0.987767L4.06141 0.124864C4.15851 -0.0408594 4.40414 -0.0408594 4.50125 0.124864ZM1.14245 11.4283V12.5712H14.8518V11.4283H1.14245ZM4.31846 9.42936L4.57951 9.22478L4.58236 9.22307C4.93233 8.95068 5.36309 8.8028 5.8065 8.8028C6.24991 8.8028 6.68066 8.95068 7.03063 9.22307L7.03349 9.22478L7.29397 9.42936H7.29511C7.49658 9.58626 7.74458 9.67149 7.9999 9.6716C8.25522 9.6717 8.50329 9.58666 8.70489 9.42993L8.70603 9.42936L8.96651 9.22478L8.96937 9.22307C9.31934 8.95068 9.75009 8.8028 10.1935 8.8028C10.6369 8.8028 11.0677 8.95068 11.4176 9.22307L11.4205 9.22478L11.681 9.42936H11.6821C11.8833 9.58608 12.1308 9.67137 12.3858 9.67179C12.6407 9.6722 12.8885 9.58772 13.0902 9.43165L13.2216 9.32707H13.2227C13.45 9.14621 13.7143 9.01768 13.9969 8.95061C14.2794 8.88354 14.5733 8.8796 14.8576 8.93905V5.14342C14.8576 4.99186 14.7974 4.84651 14.6902 4.73934C14.5831 4.63217 14.4378 4.57196 14.2863 4.57196H1.71367C1.56218 4.57196 1.41688 4.63217 1.30976 4.73934C1.20263 4.84651 1.14245 4.99186 1.14245 5.14342V8.94362C1.69539 8.82933 2.29232 8.94934 2.7693 9.32021L2.7733 9.32307L2.91039 9.43165C3.11192 9.58766 3.35961 9.67216 3.61443 9.67185C3.86925 9.67154 4.11673 9.58643 4.31789 9.42993" fill="#9D87D2"/>
</svg>
