<svg width="16" height="18" viewBox="0 0 16 18" fill="none" xmlns="http://www.w3.org/2000/svg">
<path fill-rule="evenodd" clip-rule="evenodd" d="M7.88305 17.3971C4.16663 17.3971 2.30886 17.3971 1.15443 16.1227C-1.04415e-07 14.8501 0 12.799 0 8.69854C0 4.59805 -1.04415e-07 2.5478 1.15443 1.27347C2.30886 -0.000869894 4.16751 1.61699e-09 7.88305 1.61699e-09C11.5986 1.61699e-09 13.4572 0 14.6117 1.27347C15.7661 2.54867 15.7661 4.59805 15.7661 8.69854C15.7661 12.799 15.7661 14.8493 14.6117 16.1227C13.4572 17.3962 11.5986 17.3971 7.88305 17.3971ZM10.5107 3.47942H5.25537C4.84807 3.47942 4.64487 3.47942 4.47757 3.52378C4.25498 3.5831 4.05201 3.69952 3.88905 3.86136C3.72608 4.0232 3.60885 4.22476 3.54912 4.44582C3.50358 4.6137 3.50358 4.81551 3.50358 5.21912C3.50358 5.62274 3.50358 5.82541 3.54825 5.99155C3.60798 6.21261 3.72521 6.41418 3.88817 6.57602C4.05114 6.73786 4.2541 6.85428 4.4767 6.9136C4.64574 6.95883 4.84895 6.95883 5.25537 6.95883H10.5107C10.918 6.95883 11.1212 6.95883 11.2885 6.91447C11.5111 6.85515 11.7141 6.73873 11.877 6.57689C12.04 6.41505 12.1572 6.21348 12.217 5.99242C12.2625 5.82454 12.2625 5.62274 12.2625 5.21912C12.2625 4.81551 12.2625 4.61283 12.2178 4.44669C12.1581 4.22564 12.0409 4.02407 11.8779 3.86223C11.715 3.70039 11.512 3.58397 11.2894 3.52465C11.1212 3.47942 10.9171 3.47942 10.5107 3.47942ZM5.25537 9.56839C5.25537 9.79909 5.16308 10.0203 4.99882 10.1835C4.83456 10.3466 4.61177 10.4382 4.37947 10.4382C4.14717 10.4382 3.92438 10.3466 3.76012 10.1835C3.59586 10.0203 3.50358 9.79909 3.50358 9.56839C3.50358 9.33769 3.59586 9.11644 3.76012 8.95331C3.92438 8.79018 4.14717 8.69854 4.37947 8.69854C4.61177 8.69854 4.83456 8.79018 4.99882 8.95331C5.16308 9.11644 5.25537 9.33769 5.25537 9.56839ZM7.88305 10.4382C8.11535 10.4382 8.33814 10.3466 8.5024 10.1835C8.66666 10.0203 8.75894 9.79909 8.75894 9.56839C8.75894 9.33769 8.66666 9.11644 8.5024 8.95331C8.33814 8.79018 8.11535 8.69854 7.88305 8.69854C7.65075 8.69854 7.42796 8.79018 7.2637 8.95331C7.09944 9.11644 7.00715 9.33769 7.00715 9.56839C7.00715 9.79909 7.09944 10.0203 7.2637 10.1835C7.42796 10.3466 7.65075 10.4382 7.88305 10.4382ZM12.2625 9.56839C12.2625 9.79909 12.1702 10.0203 12.006 10.1835C11.8417 10.3466 11.6189 10.4382 11.3866 10.4382C11.1543 10.4382 10.9315 10.3466 10.7673 10.1835C10.603 10.0203 10.5107 9.79909 10.5107 9.56839C10.5107 9.33769 10.603 9.11644 10.7673 8.95331C10.9315 8.79018 11.1543 8.69854 11.3866 8.69854C11.6189 8.69854 11.8417 8.79018 12.006 8.95331C12.1702 9.11644 12.2625 9.33769 12.2625 9.56839ZM11.3866 13.9177C11.6189 13.9177 11.8417 13.826 12.006 13.6629C12.1702 13.4998 12.2625 13.2785 12.2625 13.0478C12.2625 12.8171 12.1702 12.5959 12.006 12.4327C11.8417 12.2696 11.6189 12.178 11.3866 12.178C11.1543 12.178 10.9315 12.2696 10.7673 12.4327C10.603 12.5959 10.5107 12.8171 10.5107 13.0478C10.5107 13.2785 10.603 13.4998 10.7673 13.6629C10.9315 13.826 11.1543 13.9177 11.3866 13.9177ZM8.75894 13.0478C8.75894 13.2785 8.66666 13.4998 8.5024 13.6629C8.33814 13.826 8.11535 13.9177 7.88305 13.9177C7.65075 13.9177 7.42796 13.826 7.2637 13.6629C7.09944 13.4998 7.00715 13.2785 7.00715 13.0478C7.00715 12.8171 7.09944 12.5959 7.2637 12.4327C7.42796 12.2696 7.65075 12.178 7.88305 12.178C8.11535 12.178 8.33814 12.2696 8.5024 12.4327C8.66666 12.5959 8.75894 12.8171 8.75894 13.0478ZM4.37947 13.9177C4.61177 13.9177 4.83456 13.826 4.99882 13.6629C5.16308 13.4998 5.25537 13.2785 5.25537 13.0478C5.25537 12.8171 5.16308 12.5959 4.99882 12.4327C4.83456 12.2696 4.61177 12.178 4.37947 12.178C4.14717 12.178 3.92438 12.2696 3.76012 12.4327C3.59586 12.5959 3.50358 12.8171 3.50358 13.0478C3.50358 13.2785 3.59586 13.4998 3.76012 13.6629C3.92438 13.826 4.14717 13.9177 4.37947 13.9177Z" fill="#9334EA"/>
</svg>
