<svg width="54" height="49" viewBox="0 0 54 49" fill="none" xmlns="http://www.w3.org/2000/svg">
<path d="M35.1 2.72952e-07C36.4624 -0.00043441 37.7745 0.518329 38.7735 1.4523C39.7724 2.38627 40.3843 3.66641 40.4865 5.03611L40.5 5.44444C40.5001 6.11121 40.7429 6.75475 41.1823 7.25301C41.6218 7.75127 42.2273 8.0696 42.8841 8.14761L43.2 8.16667H45.9C47.9661 8.16655 49.9541 8.96244 51.4573 10.3915C52.9605 11.8205 53.8653 13.7747 53.9865 15.8542L54 16.3333V40.8333C54.0001 42.9164 53.2107 44.9208 51.7933 46.4364C50.3759 47.952 48.4377 48.8642 46.3752 48.9864L45.9 49H8.1C6.03393 49.0001 4.04591 48.2042 2.5427 46.7752C1.03948 45.3461 0.13471 43.3919 0.0135003 41.3124L1.25832e-08 40.8333V16.3333C-0.000115079 14.2503 0.789278 12.2459 2.20667 10.7303C3.62405 9.2147 5.56229 8.30249 7.6248 8.18028L8.1 8.16667H10.8C11.5161 8.16667 12.2028 7.87986 12.7092 7.36935C13.2155 6.85883 13.5 6.16642 13.5 5.44444C13.4996 4.07088 14.0141 2.7479 14.9404 1.74073C15.8668 0.733559 17.1365 0.116629 18.495 0.0136117L18.9 2.72952e-07H35.1ZM27 19.0556C24.9928 19.0554 23.057 19.8066 21.568 21.1636C20.0789 22.5206 19.1426 24.3867 18.9405 26.4001L18.9108 26.8139L18.9 27.2222L18.9108 27.6306C18.99 29.2264 19.5319 30.7638 20.4692 32.0522C21.4065 33.3407 22.6981 34.3236 24.184 34.8792C25.6699 35.4348 27.2848 35.5388 28.8287 35.1782C30.3726 34.8176 31.7777 34.0083 32.8699 32.8505C33.9621 31.6927 34.6935 30.2373 34.9733 28.6645C35.2532 27.0918 35.0694 25.4708 34.4445 24.0024C33.8197 22.534 32.7814 21.2826 31.4581 20.4033C30.1348 19.524 28.5848 19.0554 27 19.0556Z" fill="#9D87D2"/>
</svg>
