<svg width="44" height="44" viewBox="0 0 44 44" fill="none" xmlns="http://www.w3.org/2000/svg">
<path d="M21.6667 0C9.70667 0 0 9.70667 0 21.6667C0 33.6267 9.70667 43.3333 21.6667 43.3333C33.6267 43.3333 43.3333 33.6267 43.3333 21.6667C43.3333 9.70667 33.6267 0 21.6667 0ZM21.6667 8.66667C25.8483 8.66667 29.25 12.0683 29.25 16.25C29.25 20.4317 25.8483 23.8333 21.6667 23.8333C17.485 23.8333 14.0833 20.4317 14.0833 16.25C14.0833 12.0683 17.485 8.66667 21.6667 8.66667ZM21.6667 39C17.2683 39 12.0683 37.2233 8.36333 32.76C12.025 29.9 16.64 28.1667 21.6667 28.1667C26.6933 28.1667 31.3083 29.9 34.97 32.76C31.265 37.2233 26.065 39 21.6667 39Z" fill="#4A3F65"/>
</svg>
