<svg width="24" height="23" viewBox="0 0 24 23" fill="none" xmlns="http://www.w3.org/2000/svg">
<path d="M3.01049 18.9474C2.53334 18.9474 2.07573 19.1345 1.73833 19.4676C1.40094 19.8008 1.21139 20.2526 1.21139 20.7237C1.21139 21.1948 1.40094 21.6466 1.73833 21.9797C2.07573 22.3129 2.53334 22.5 3.01049 22.5C3.48763 22.5 3.94524 22.3129 4.28264 21.9797C4.62003 21.6466 4.80958 21.1948 4.80958 20.7237C4.80958 20.2526 4.62003 19.8008 4.28264 19.4676C3.94524 19.1345 3.48763 18.9474 3.01049 18.9474ZM19.862 4.90263C19.2911 3.46045 18.2935 2.22144 16.9992 1.34698C15.7049 0.47253 14.174 0.00315676 12.6057 0C10.4587 0 8.44375 0.864474 6.96849 2.39211C4.50973 2.15526 2.41079 4.12105 2.41079 6.51316V6.80921C0.923535 7.78026 0 9.43816 0 11.25C0 13.0618 0.995499 14.8145 2.5787 15.7737C3.04647 17.1118 4.50973 17.9882 5.961 17.7039C7.83206 19.1487 10.5427 19.3263 12.6057 18.1303C13.5172 18.6632 14.5367 18.9474 15.6041 18.9474C18.3148 18.9474 20.6416 17.1711 21.3612 14.6368C22.9804 13.6776 23.9999 11.9487 23.9999 10.0658C24.0064 8.86918 23.6002 7.70602 22.8482 6.76763C22.0961 5.82925 21.043 5.17152 19.862 4.90263Z" fill="#9334EA"/>
</svg>
