<svg width="24" height="24" viewBox="0 0 24 24" fill="none" xmlns="http://www.w3.org/2000/svg">
<path d="M13.8 24C11.64 24 9.8 23.24 8.28 21.72C6.76 20.2 6 18.36 6 16.2V15.51C4.28 15.23 2.85 14.4248 1.71 13.0944C0.57 11.764 0 10.1992 0 8.4V1.2H3.6V0H6V4.8H3.6V3.6H2.4V8.4C2.4 9.72 2.87 10.85 3.81 11.79C4.75 12.73 5.88 13.2 7.2 13.2C8.52 13.2 9.65 12.73 10.59 11.79C11.53 10.85 12 9.72 12 8.4V3.6H10.8V4.8H8.4V0H10.8V1.2H14.4V8.4C14.4 10.2 13.83 11.7652 12.69 13.0956C11.55 14.426 10.12 15.2308 8.4 15.51V16.2C8.4 17.7 8.9252 18.9752 9.9756 20.0256C11.026 21.076 12.3008 21.6008 13.8 21.6C15.2992 21.5992 16.5744 21.0744 17.6256 20.0256C18.6768 18.9768 19.2016 17.7016 19.2 16.2V14.19C18.5 13.95 17.9252 13.52 17.4756 12.9C17.026 12.28 16.8008 11.58 16.8 10.8C16.8 9.8 17.15 8.95 17.85 8.25C18.55 7.55 19.4 7.2 20.4 7.2C21.4 7.2 22.25 7.55 22.95 8.25C23.65 8.95 24 9.8 24 10.8C24 11.58 23.7752 12.28 23.3256 12.9C22.876 13.52 22.3008 13.95 21.6 14.19V16.2C21.6 18.36 20.84 20.2 19.32 21.72C17.8 23.24 15.96 24 13.8 24Z" fill="white"/>
</svg>
