<svg width="18" height="24" viewBox="0 0 18 24" fill="currentColor" xmlns="http://www.w3.org/2000/svg">
<path d="M4.402 1.5V6H10.4461V4.5H13.284C13.4823 4.5 13.6759 4.57969 13.8175 4.72031L15.4183 6.30938C16.0085 6.89531 16.9671 6.89531 17.5573 6.30938C18.1476 5.72344 18.1476 4.77188 17.5573 4.18594L15.9566 2.59688C15.2483 1.89375 14.285 1.5 13.284 1.5H10.4461C10.4461 0.670312 9.77084 0 8.93506 0H5.91302C5.07724 0 4.402 0.670312 4.402 1.5ZM3.90148 7.5C2.32907 7.5 1.02109 8.69531 0.88888 10.2516L0.0106003 20.7516C-0.13578 22.5 1.25247 24 3.0232 24H11.8249C13.5909 24 14.9839 22.5 14.8375 20.7516L13.9545 10.2516C13.8223 8.69531 12.5143 7.5 10.9419 7.5H3.90148ZM8.55731 13.125V14.625H10.0683C10.6963 14.625 11.2016 15.1266 11.2016 15.75C11.2016 16.3734 10.6963 16.875 10.0683 16.875H8.55731V18.375C8.55731 18.9984 8.05206 19.5 7.42404 19.5C6.79602 19.5 6.29078 18.9984 6.29078 18.375V16.875H4.77976C4.15174 16.875 3.64649 16.3734 3.64649 15.75C3.64649 15.1266 4.15174 14.625 4.77976 14.625H6.29078V13.125C6.29078 12.5016 6.79602 12 7.42404 12C8.05206 12 8.55731 12.5016 8.55731 13.125Z" fill="currentColor"/>
</svg>
