<svg width="24" height="38" viewBox="0 0 24 38" fill="none" xmlns="http://www.w3.org/2000/svg">
<path d="M5 8.5C5.19818 8.87317 5.37692 9.25635 5.5355 9.648C5.79963 10.3735 5.90051 11.1483 5.83094 11.9172C5.76136 12.6861 5.52306 13.4302 5.133 14.0965C4.90712 14.453 4.66296 14.7977 4.4015 15.129L3.69625 16.0722C2.90875 17.1222 2.515 17.6472 2.22975 18.223C1.94142 18.8042 1.73528 19.4226 1.61725 20.0605C1.5 20.6887 1.5 21.345 1.5 22.661V26C1.5 30.949 1.5 33.4252 3.03825 34.9617C4.57475 36.5 7.051 36.5 12 36.5C16.949 36.5 19.4253 36.5 20.9618 34.9617C22.5 33.4252 22.5 30.949 22.5 26V22.661C22.5 21.3485 22.5 20.6905 22.3828 20.0587C22.2647 19.4208 22.0586 18.8024 21.7703 18.2212C21.485 17.6472 21.0913 17.1222 20.3038 16.0722L19.5985 15.1307C19.3364 14.7995 19.0917 14.4548 18.8653 14.0982C18.4749 13.4317 18.2365 12.6873 18.1669 11.9181C18.0973 11.1488 18.1983 10.3737 18.4627 9.648C18.5677 9.36625 18.7112 9.0775 19 8.5M6.869 1.5H17.131C18.741 1.5 19.5495 1.5 20.05 2.01275C20.9828 2.96825 20.9828 7.03175 20.05 7.98725C19.5478 8.5 18.7428 8.5 17.131 8.5H6.869C5.259 8.5 4.45225 8.5 3.95 7.98725C3.01725 7.03175 3.01725 2.96825 3.95 2.01275C4.4505 1.5 5.25725 1.5 6.869 1.5Z" stroke="#9D87D2" stroke-width="3"/>
<path d="M12 20.75V29.5M7.625 25.125H16.375" stroke="#9D87D2" stroke-width="3" stroke-linecap="round"/>
</svg>
