<svg width="52" height="38" viewBox="0 0 52 38" fill="none" xmlns="http://www.w3.org/2000/svg">
<path d="M44.1784 14.6707C45.2287 12.2053 44.7751 9.36573 43.2765 7.27553L44.1257 5.79958C44.5199 5.11455 44.6258 4.30099 44.4201 3.53788C44.2144 2.77477 43.714 2.12462 43.029 1.73046C42.344 1.33629 41.5304 1.2304 40.7673 1.43608C40.0042 1.64175 39.3541 2.14214 38.9599 2.82718L38.1106 4.30313C36.817 4.2024 35.5182 4.41696 34.3257 4.92842C33.1332 5.43988 32.0826 6.23297 31.2639 7.23967" stroke="#D2BEFF" stroke-width="2.66667" stroke-linecap="round" stroke-linejoin="round"/>
<path d="M28.6758 7.46949C28.8757 7.12999 29.2008 6.88241 29.5811 6.77988C29.9615 6.67736 30.367 6.72807 30.7104 6.92113L44.7319 14.9891C45.0714 15.189 45.319 15.514 45.4215 15.8944C45.524 16.2748 45.4733 16.6802 45.2803 17.0236L43.5817 19.9755C43.3819 20.315 43.0568 20.5626 42.6764 20.6651C42.296 20.7677 41.8906 20.717 41.5472 20.5239L27.5257 12.456C27.1862 12.2561 26.9386 11.931 26.8361 11.5506C26.7336 11.1702 26.7843 10.7648 26.9773 10.4214L28.6758 7.46949Z" stroke="#D2BEFF" stroke-width="2.66667" stroke-linecap="round" stroke-linejoin="round"/>
<path d="M28.0794 12.7745L20.33 26.2426C19.3746 27.903 20.0013 30.2282 21.6617 31.1837L28.3035 35.0053C29.9639 35.9607 32.2891 35.334 33.2445 33.6736L40.994 20.2055M21.71 23.8442L25.3999 25.9673M24.8947 18.3093L28.5846 20.4325" stroke="#D2BEFF" stroke-width="2.66667" stroke-linecap="round" stroke-linejoin="round"/>
<g clip-path="url(#clip0_198_18)">
<path d="M28 30.125C28 32.2943 27.2298 34.1491 25.6895 35.6895C24.1491 37.2298 22.2943 38 20.125 38C18.8307 38 17.6276 37.7083 16.5156 37.125C15.4036 36.5417 14.4831 35.7396 13.7539 34.7188C12.0221 35.5755 10.4544 36.0768 9.05078 36.2227C7.64714 36.3685 6.63542 36.1224 6.01563 35.4844C5.28646 34.7734 5.07227 33.5475 5.37305 31.8066C5.67383 30.0658 6.42578 28.1927 7.62891 26.1875C8.75912 27.0625 10.0078 27.5 11.375 27.5C13.0703 27.5 14.515 26.903 15.709 25.709C16.903 24.515 17.5 23.0703 17.5 21.375C17.5 20.0078 17.0625 18.7591 16.1875 17.6289C18.1927 16.4258 20.0658 15.6738 21.8066 15.3731C23.5475 15.0723 24.7734 15.2865 25.4844 16.0156C26.1224 16.6354 26.3685 17.6471 26.2227 19.0508C26.0768 20.4544 25.5755 22.0221 24.7188 23.7539C25.7396 24.4831 26.5417 25.4036 27.125 26.5156C27.7083 27.6276 28 28.8307 28 30.125ZM22.8867 26.7617C22.0482 27.9648 21.1185 29.0768 20.0977 30.0977C19.0768 31.1185 17.9648 32.0482 16.7617 32.8867C17.6549 33.9622 18.776 34.5 20.125 34.5C21.3281 34.5 22.3581 34.0716 23.2148 33.2148C24.0716 32.3581 24.5 31.3281 24.5 30.125C24.5 28.776 23.9622 27.6549 22.8867 26.7617ZM11.375 25.75C10.8281 25.75 10.3405 25.6589 9.91211 25.4766C9.48372 25.2943 9.1556 25.0937 8.92774 24.875C8.69987 24.6562 8.41732 24.4557 8.08008 24.2734C7.74284 24.0911 7.38281 24 7 24C5.06771 24 3.41797 23.3164 2.05078 21.9492C0.683594 20.582 0 18.9323 0 17C0 15.0677 0.683594 13.418 2.05078 12.0508C3.41797 10.6836 5.06771 10 7 10C8.93229 10 10.582 10.6836 11.9492 12.0508C13.3164 13.418 14 15.0677 14 17C14 17.3828 14.0911 17.7428 14.2734 18.0801C14.4557 18.4173 14.6563 18.6999 14.875 18.9277C15.0938 19.1556 15.2943 19.4837 15.4766 19.9121C15.6589 20.3405 15.75 20.8281 15.75 21.375C15.75 22.5781 15.3216 23.6081 14.4648 24.4648C13.6081 25.3216 12.5781 25.75 11.375 25.75Z" fill="#9D87D2"/>
</g>
<defs>
<clipPath id="clip0_198_18">
<rect width="28" height="28" fill="white" transform="translate(0 10)"/>
</clipPath>
</defs>
</svg>
