<svg width="17" height="17" viewBox="0 0 17 17" fill="none" xmlns="http://www.w3.org/2000/svg">
<path d="M8.375 14.1667L10.75 11.8125L8.375 9.45833L7.5 10.3333L8.39583 11.2292C8.00694 11.2431 7.62861 11.1806 7.26083 11.0417C6.89306 10.9028 6.56306 10.6875 6.27083 10.3958C5.99306 10.1181 5.78111 9.79861 5.635 9.4375C5.48889 9.07639 5.41611 8.71528 5.41667 8.35417C5.41667 8.11806 5.44806 7.88195 5.51083 7.64583C5.57361 7.40972 5.66028 7.18056 5.77083 6.95833L4.85417 6.04167C4.61806 6.38889 4.44445 6.75694 4.33333 7.14583C4.22222 7.53472 4.16667 7.93056 4.16667 8.33333C4.16667 8.86111 4.27083 9.38194 4.47917 9.89583C4.6875 10.4097 4.99306 10.8681 5.39583 11.2708C5.79861 11.6736 6.25 11.9758 6.75 12.1775C7.25 12.3792 7.76389 12.4867 8.29167 12.5L7.5 13.2917L8.375 14.1667ZM11.8125 10.625C12.0486 10.2778 12.2222 9.90972 12.3333 9.52083C12.4444 9.13194 12.5 8.73611 12.5 8.33333C12.5 7.80556 12.3992 7.28111 12.1975 6.76C11.9958 6.23889 11.6939 5.77722 11.2917 5.375C10.8894 4.97278 10.4344 4.67417 9.92667 4.47917C9.41889 4.28417 8.90167 4.18694 8.375 4.1875L9.16667 3.375L8.29167 2.5L5.91667 4.85417L8.29167 7.20833L9.16667 6.33333L8.25 5.41667C8.625 5.41667 9.00694 5.48972 9.39583 5.63583C9.78472 5.78194 10.1181 5.99361 10.3958 6.27083C10.6736 6.54806 10.8856 6.8675 11.0317 7.22917C11.1778 7.59083 11.2506 7.95195 11.25 8.3125C11.25 8.54861 11.2189 8.78472 11.1567 9.02083C11.0944 9.25694 11.0075 9.48611 10.8958 9.70833L11.8125 10.625ZM8.33333 16.6667C7.18056 16.6667 6.09722 16.4478 5.08333 16.01C4.06945 15.5722 3.1875 14.9786 2.4375 14.2292C1.6875 13.4797 1.09389 12.5978 0.656668 11.5833C0.219446 10.5689 0.00055661 9.48556 1.05485e-06 8.33333C-0.000554501 7.18111 0.218334 6.09778 0.656668 5.08333C1.095 4.06889 1.68861 3.18694 2.4375 2.4375C3.18639 1.68806 4.06833 1.09444 5.08333 0.656667C6.09833 0.218889 7.18167 0 8.33333 0C9.485 0 10.5683 0.218889 11.5833 0.656667C12.5983 1.09444 13.4803 1.68806 14.2292 2.4375C14.9781 3.18694 15.5719 4.06889 16.0108 5.08333C16.4497 6.09778 16.6683 7.18111 16.6667 8.33333C16.665 9.48556 16.4461 10.5689 16.01 11.5833C15.5739 12.5978 14.9803 13.4797 14.2292 14.2292C13.4781 14.9786 12.5961 15.5725 11.5833 16.0108C10.5706 16.4492 9.48722 16.6678 8.33333 16.6667ZM8.33333 15C10.1944 15 11.7708 14.3542 13.0625 13.0625C14.3542 11.7708 15 10.1944 15 8.33333C15 6.47222 14.3542 4.89583 13.0625 3.60417C11.7708 2.3125 10.1944 1.66667 8.33333 1.66667C6.47222 1.66667 4.89583 2.3125 3.60417 3.60417C2.3125 4.89583 1.66667 6.47222 1.66667 8.33333C1.66667 10.1944 2.3125 11.7708 3.60417 13.0625C4.89583 14.3542 6.47222 15 8.33333 15Z" fill="#41354C"/>
</svg>
