<svg width="18" height="18" viewBox="0 0 18 18" fill="none" xmlns="http://www.w3.org/2000/svg">
<path d="M0 11.8439C0 12.5807 0.59324 13.1739 1.77885 14.3595L3.03753 15.6182C4.22314 16.8038 4.81638 17.3971 5.55315 17.3971C6.28991 17.3971 6.88402 16.8038 8.06963 15.6182L15.6182 8.06963C16.8038 6.88315 17.3971 6.28904 17.3971 5.55315C17.3971 4.81725 16.8038 4.22314 15.6182 3.03753L14.3595 1.77885C13.1739 0.59324 12.5807 0 11.8439 0C11.1881 0 10.647 0.469721 9.70061 1.40742C9.72671 1.42656 9.75135 1.44773 9.77455 1.47092L11.0054 2.70177C11.0677 2.76198 11.1173 2.83399 11.1515 2.9136C11.1856 2.99321 11.2036 3.07882 11.2043 3.16545C11.205 3.25207 11.1885 3.33797 11.1556 3.41813C11.1228 3.49829 11.0743 3.57111 11.013 3.63233C10.9518 3.69356 10.8789 3.74197 10.7987 3.77473C10.7185 3.8075 10.6326 3.82396 10.546 3.82317C10.4593 3.82238 10.3737 3.80434 10.2942 3.77011C10.2146 3.73588 10.1426 3.68615 10.0825 3.62381L8.8525 2.39384C8.82965 2.37014 8.80816 2.34516 8.78813 2.31903L7.85478 3.25238C7.88088 3.27152 7.90581 3.29298 7.92959 3.31675L9.77455 5.16171C9.83864 5.22144 9.89005 5.29346 9.92571 5.37349C9.96137 5.45351 9.98054 5.5399 9.98209 5.6275C9.98363 5.7151 9.96752 5.80211 9.93471 5.88334C9.90189 5.96457 9.85306 6.03837 9.79111 6.10032C9.72916 6.16227 9.65536 6.21111 9.57413 6.24392C9.4929 6.27673 9.40589 6.29284 9.31829 6.2913C9.23069 6.28975 9.1443 6.27058 9.06428 6.23492C8.98425 6.19926 8.91223 6.14785 8.8525 6.08376L7.00667 4.23967C6.98379 4.21569 6.9623 4.19042 6.9423 4.16399L6.01069 5.09734C6.03621 5.11648 6.06114 5.13794 6.0855 5.16171L7.31547 6.39169C7.43071 6.51536 7.49344 6.67893 7.49046 6.84794C7.48748 7.01696 7.41901 7.17822 7.29948 7.29774C7.17995 7.41727 7.0187 7.48574 6.84968 7.48872C6.68067 7.49171 6.5171 7.42897 6.39343 7.31373L5.16084 6.0855C5.13799 6.0618 5.1165 6.03682 5.09647 6.01069L4.16399 6.94143C4.19067 6.96057 4.2156 6.98203 4.2388 7.0058L6.08463 8.85163C6.20341 8.97473 6.26909 9.13956 6.26752 9.31061C6.26596 9.48167 6.19727 9.64526 6.07625 9.76616C5.95524 9.88707 5.79157 9.9556 5.62052 9.95701C5.44946 9.95841 5.2847 9.89257 5.16171 9.77368L3.31675 7.92872C3.2939 7.90502 3.27241 7.88004 3.25238 7.85391L2.31903 8.78726C2.34513 8.80582 2.37006 8.82728 2.39384 8.85163L3.62381 10.0816C3.73905 10.2053 3.80179 10.3688 3.7988 10.5379C3.79582 10.7069 3.72735 10.8681 3.60782 10.9877C3.4883 11.1072 3.32704 11.1757 3.15802 11.1786C2.98901 11.1816 2.82544 11.1189 2.70177 11.0036L1.47005 9.77542C1.44752 9.75198 1.42632 9.72729 1.40655 9.70148C0.468851 10.647 0 11.1881 0 11.8439Z" fill="#9334EA"/>
</svg>
