<svg width="16" height="22" viewBox="0 0 16 22" fill="none" xmlns="http://www.w3.org/2000/svg">
<path d="M7.83191 13.6982C9.70222 13.6982 11.2007 12.1686 11.2007 10.2736L11.212 3.42455C11.212 1.52963 9.70222 0 7.83191 0C5.9616 0 4.45183 1.52963 4.45183 3.42455V10.2736C4.45183 12.1686 5.9616 13.6982 7.83191 13.6982ZM6.47988 3.3104C6.47988 2.557 7.08829 1.94058 7.83191 1.94058C8.57553 1.94058 9.18394 2.557 9.18394 3.3104L9.17267 10.3878C9.17267 11.1412 8.57553 11.7576 7.83191 11.7576C7.08829 11.7576 6.47988 11.1412 6.47988 10.3878V3.3104ZM14.7611 10.2736C14.2321 10.2736 13.8121 10.7054 13.727 11.2275C13.2533 14.1351 10.644 16.0954 7.83191 16.0954C5.01986 16.0954 2.4105 14.1351 1.93679 11.2275C1.85174 10.7054 1.43167 10.2736 0.902756 10.2736C0.37384 10.2736 -0.061408 10.7046 0.00717029 11.229C0.382203 14.0971 2.41655 16.479 5.03605 17.4982C5.96371 17.8591 6.70522 18.6805 6.70522 19.6758V20.5621C6.70522 21.1844 7.20965 21.6888 7.83191 21.6888C8.45416 21.6888 8.9586 21.1844 8.9586 20.5621V19.6787C8.9586 18.6824 9.70244 17.8611 10.6315 17.5013C13.25 16.487 15.283 14.1042 15.657 11.2291C15.7252 10.7046 15.29 10.2736 14.7611 10.2736Z" fill="#41354C"/>
</svg>
