<svg width="20" height="25" viewBox="0 0 20 25" fill="none" xmlns="http://www.w3.org/2000/svg">
<path d="M1.25 21.25C0.895833 21.25 0.59875 21.13 0.35875 20.89C0.119584 20.6508 0 20.3542 0 20C0 19.6458 0.119584 19.3492 0.35875 19.11C0.59875 18.87 0.895833 18.75 1.25 18.75H2.5V10C2.5 8.27083 3.02083 6.73417 4.0625 5.39C5.10417 4.04667 6.45833 3.16667 8.125 2.75V1.875C8.125 1.35417 8.3075 0.911667 8.6725 0.5475C9.03667 0.1825 9.47917 0 10 0C10.5208 0 10.9633 0.1825 11.3275 0.5475C11.6925 0.911667 11.875 1.35417 11.875 1.875V2.75C13.5417 3.16667 14.8958 4.04667 15.9375 5.39C16.9792 6.73417 17.5 8.27083 17.5 10V18.75H18.75C19.1042 18.75 19.4008 18.87 19.64 19.11C19.88 19.3492 20 19.6458 20 20C20 20.3542 19.88 20.6508 19.64 20.89C19.4008 21.13 19.1042 21.25 18.75 21.25H1.25ZM10 25C9.3125 25 8.72417 24.7554 8.235 24.2663C7.745 23.7763 7.5 23.1875 7.5 22.5H12.5C12.5 23.1875 12.2554 23.7763 11.7663 24.2663C11.2762 24.7554 10.6875 25 10 25Z" fill="#41354C"/>
</svg>
