<svg width="20" height="20" viewBox="0 0 20 20" fill="none" xmlns="http://www.w3.org/2000/svg">
<path d="M14.1667 17.9223C13.2444 17.9223 12.5 16.989 12.5 15.8334C12.5 14.689 13.2444 13.7557 14.1667 13.7557C15.0889 13.7557 15.8333 14.689 15.8333 15.8334C15.8333 16.989 15.0889 17.9223 14.1667 17.9223ZM10 9.16696C8.62223 9.16696 7.50001 8.23365 7.50001 7.08923C7.50001 5.93371 8.62223 5.0004 10 5.0004C11.3778 5.0004 12.5 5.93371 12.5 7.08923C12.5 8.23365 11.3778 9.16696 10 9.16696ZM5.83334 17.9223C4.91112 17.9223 4.16668 16.989 4.16668 15.8334C4.16668 14.689 4.91112 13.7557 5.83334 13.7557C6.75557 13.7557 7.50001 14.689 7.50001 15.8334C7.50001 16.989 6.75557 17.9223 5.83334 17.9223ZM10 5.83371C10.4556 5.83371 10.8333 6.21148 10.8333 6.66702C10.8333 7.12257 10.4556 7.50033 10 7.50033C9.54445 7.50033 9.16667 7.12257 9.16667 6.66702C9.16667 6.21148 9.54445 5.83371 10 5.83371ZM17.5 10.0003C17.1444 10.0003 16.8 10.078 16.4889 10.2225C15.9556 9.54472 15.2333 8.96696 14.3667 8.52253C15 7.63366 15.3778 6.55591 15.3778 5.38928V5.32261C16.5889 5.06707 17.5 3.98932 17.5 2.68935C17.5 1.21161 16.2889 0.000533778 14.8111 0.000533778C14.0444 0.000533778 13.3333 0.322747 12.8667 0.833845C12.0097 0.289235 11.0154 0 10 0C8.98464 0 7.99029 0.289235 7.13334 0.833845C6.66668 0.322747 5.95557 0.000533778 5.1889 0.000533778C3.71112 0.000533778 2.50001 1.21161 2.50001 2.68935C2.50001 3.97821 3.41112 5.05595 4.61112 5.32261V5.38928C4.61112 6.55591 5.00001 7.64477 5.62223 8.52253C4.76668 8.96696 4.04446 9.54472 3.51112 10.2225C3.13142 10.0514 2.71486 9.97841 2.29961 10.0101C1.88437 10.0417 1.48371 10.1771 1.13433 10.4038C0.784957 10.6304 0.49804 10.9411 0.299865 11.3074C0.10169 11.6736 -0.00140853 12.0838 1.45342e-05 12.5002C1.45342e-05 13.8891 1.11112 15.0001 2.50001 15.0001H2.56668C2.52223 15.2668 2.50001 15.5557 2.50001 15.8334C2.50001 18.1334 3.9889 20 5.83334 20C6.95556 20 7.94445 19.3 8.55556 18.2334C9.02223 18.3 9.50001 18.3334 10 18.3334C10.5 18.3334 10.9778 18.3 11.4445 18.2334C12.0556 19.3 13.0444 20 14.1667 20C16.0111 20 17.5 18.1334 17.5 15.8334C17.5 15.5557 17.4778 15.2668 17.4333 15.0001H17.5C18.8889 15.0001 20 13.8891 20 12.5002C20 11.1113 18.8889 10.0003 17.5 10.0003Z" fill="#F9F5FF"/>
</svg>
