<svg width="24" height="32" viewBox="0 0 24 32" fill="none" xmlns="http://www.w3.org/2000/svg">
<path d="M5.86934 2V8H13.9281V6H17.712C17.9764 6 18.2345 6.10625 18.4234 6.29375L20.5577 8.4125C21.3447 9.19375 22.6228 9.19375 23.4098 8.4125C24.1967 7.63125 24.1967 6.3625 23.4098 5.58125L21.2754 3.4625C20.3311 2.525 19.0467 2 17.712 2H13.9281C13.9281 0.89375 13.0278 0 11.9134 0H7.88403C6.76965 0 5.86934 0.89375 5.86934 2ZM5.20197 10C3.10543 10 1.36146 11.5938 1.18517 13.6687L0.0141337 27.6688C-0.18104 30 1.66996 32 4.03093 32H15.7665C18.1212 32 19.9785 30 19.7833 27.6688L18.606 13.6687C18.4297 11.5938 16.6857 10 14.5892 10H5.20197ZM11.4097 17.5V19.5H13.4244C14.2618 19.5 14.9355 20.1688 14.9355 21C14.9355 21.8312 14.2618 22.5 13.4244 22.5H11.4097V24.5C11.4097 25.3312 10.7361 26 9.89872 26C9.06136 26 8.3877 25.3312 8.3877 24.5V22.5H6.37301C5.53565 22.5 4.86199 21.8312 4.86199 21C4.86199 20.1688 5.53565 19.5 6.37301 19.5H8.3877V17.5C8.3877 16.6688 9.06136 16 9.89872 16C10.7361 16 11.4097 16.6688 11.4097 17.5Z" fill="#9D87D2"/>
</svg>
