<svg width="16" height="16" viewBox="0 0 16 16" fill="none" xmlns="http://www.w3.org/2000/svg">
<path d="M11.5284 10.1762C11.3651 10.0125 11.1434 9.92055 10.9122 9.92055H10.6659C10.5985 9.92055 10.5338 9.89442 10.4853 9.84765C10.386 9.75189 10.3792 9.59565 10.4647 9.4874C11.2545 8.48722 11.7243 7.22643 11.7243 5.86215C11.7243 2.62444 9.09985 0 5.86215 0C2.62444 0 0 2.62444 0 5.86215C0 9.09985 2.62444 11.7243 5.86215 11.7243C7.22643 11.7243 8.48722 11.2545 9.4874 10.4647C9.59565 10.3792 9.75189 10.386 9.84765 10.4853C9.89442 10.5338 9.92055 10.5985 9.92055 10.6659V10.9122C9.92055 11.1434 10.0125 11.3651 10.1762 11.5284L13.7573 15.1025C14.1289 15.4733 14.7306 15.473 15.1018 15.1018C15.473 14.7306 15.4733 14.1289 15.1025 13.7573L11.5284 10.1762ZM5.86215 9.92055C3.61649 9.92055 1.80374 8.1078 1.80374 5.86215C1.80374 3.61649 3.61649 1.80374 5.86215 1.80374C8.1078 1.80374 9.92055 3.61649 9.92055 5.86215C9.92055 8.1078 8.1078 9.92055 5.86215 9.92055Z" fill="#7963AB"/>
</svg>
