<svg width="20" height="20" viewBox="0 0 20 20" fill="none" xmlns="http://www.w3.org/2000/svg">
<path d="M3.98786 20C3.43958 20 2.95294 19.8241 2.52793 19.4722C2.10216 19.1204 1.84202 18.6759 1.74749 18.1389L0.017578 7.97222C-0.0391403 7.63889 0.0413997 7.33815 0.259198 7.07C0.47624 6.80111 0.764369 6.66667 1.12359 6.66667H18.8764C19.2356 6.66667 19.5238 6.80111 19.7408 7.07C19.9586 7.33815 20.0391 7.63889 19.9824 7.97222L18.2525 18.1389C18.158 18.6759 17.8982 19.1204 17.4732 19.4722C17.0474 19.8241 16.5604 20 16.0121 20H3.98786ZM7.73127 13.3333H12.2687C12.5901 13.3333 12.8597 13.2267 13.0775 13.0133C13.2946 12.8007 13.4031 12.537 13.4031 12.2222C13.4031 11.9074 13.2946 11.6433 13.0775 11.43C12.8597 11.2174 12.5901 11.1111 12.2687 11.1111H7.73127C7.40986 11.1111 7.14064 11.2174 6.9236 11.43C6.7058 11.6433 6.5969 11.9074 6.5969 12.2222C6.5969 12.537 6.7058 12.8007 6.9236 13.0133C7.14064 13.2267 7.40986 13.3333 7.73127 13.3333ZM3.1938 5.55556C2.8724 5.55556 2.6028 5.44926 2.385 5.23667C2.16796 5.02333 2.05944 4.75926 2.05944 4.44444C2.05944 4.12963 2.16796 3.86556 2.385 3.65222C2.6028 3.43963 2.8724 3.33333 3.1938 3.33333H16.8062C17.1276 3.33333 17.3968 3.43963 17.6139 3.65222C17.8317 3.86556 17.9406 4.12963 17.9406 4.44444C17.9406 4.75926 17.8317 5.02333 17.6139 5.23667C17.3968 5.44926 17.1276 5.55556 16.8062 5.55556H3.1938ZM5.46254 2.22222C5.14113 2.22222 4.87153 2.11556 4.65373 1.90222C4.43669 1.68963 4.32817 1.42593 4.32817 1.11111C4.32817 0.796296 4.43669 0.532222 4.65373 0.318889C4.87153 0.106296 5.14113 0 5.46254 0H14.5375C14.8589 0 15.1281 0.106296 15.3451 0.318889C15.5629 0.532222 15.6718 0.796296 15.6718 1.11111C15.6718 1.42593 15.5629 1.68963 15.3451 1.90222C15.1281 2.11556 14.8589 2.22222 14.5375 2.22222H5.46254Z" fill="#9D87D2"/>
</svg>
