<svg width="20" height="22" viewBox="0 0 20 22" fill="none" xmlns="http://www.w3.org/2000/svg">
<path d="M9.47368 3.62805H6.31579V2.07317H6.84211C7.42105 2.07317 7.89474 1.60671 7.89474 1.03659C7.89474 0.466463 7.42105 0 6.84211 0H3.68421C3.10526 0 2.63158 0.466463 2.63158 1.03659C2.63158 1.60671 3.10526 2.07317 3.68421 2.07317H4.21053V3.62805H1.05263C0.473684 3.62805 0 4.09451 0 4.66463C0 5.23476 0.473684 5.70122 1.05263 5.70122V13.4756C1.05263 14.6159 2 15.5488 3.15789 15.5488H4.21053V19.6951L6.31579 21.25V15.5488H7.36842C8.52632 15.5488 9.47368 14.6159 9.47368 13.4756V5.70122C10.0526 5.70122 10.5263 5.23476 10.5263 4.66463C10.5263 4.09451 10.0526 3.62805 9.47368 3.62805ZM7.36842 7.2561H5.52632C5.09474 7.2561 4.73684 7.60854 4.73684 8.03354C4.73684 8.45854 5.09474 8.81098 5.52632 8.81098H7.36842V10.3659H5.52632C5.09474 10.3659 4.73684 10.7183 4.73684 11.1433C4.73684 11.5683 5.09474 11.9207 5.52632 11.9207H7.36842V13.4756H3.15789V5.70122H7.36842V7.2561ZM18.4211 8.81098V8.29268C19 8.29268 19.4737 7.82622 19.4737 7.2561C19.4737 6.68598 19 6.21951 18.4211 6.21951H13.1579C12.5789 6.21951 12.1053 6.68598 12.1053 7.2561C12.1053 7.82622 12.5789 8.29268 13.1579 8.29268V8.81098C13.1579 9.32927 11.5789 10.0134 11.5789 11.9207V18.6585C11.5789 19.7988 12.5263 20.7317 13.6842 20.7317H17.8947C19.0526 20.7317 20 19.7988 20 18.6585V11.9207C20 10.0134 18.4211 9.32927 18.4211 8.81098ZM15.2632 8.81098V8.29268H16.3158V8.81098C16.3158 10.4695 17.8947 10.8841 17.8947 11.9207V12.439H13.6842C13.6842 12.2213 13.6842 12.0348 13.6842 11.9207C13.6842 10.8841 15.2632 10.4695 15.2632 8.81098ZM13.6842 18.6585C13.6842 18.6585 13.6842 18.0055 13.6842 17.1037H17.8947V18.6585H13.6842Z" fill="#9D87D2"/>
</svg>
